<svg xmlns="http://www.w3.org/2000/svg" width="116" height="32" viewBox="0 0 116 32"><path fill="#8b5cf6" d="M6 0H110A6 6 0 0 1 116 6V26A6 6 0 0 1 110 32H6A6 6 0 0 1 0 26V6A6 6 0 0 1 6 0"/><g><path fill="#fff" fill-opacity=".7" d="M16.8 21.2Q16.1 21.2 15.7 20.9T15 20.4L14.6 19.8H14.5V21H13V10.8H14.5V14.6H14.6L15 14Q15.2 13.7 15.7 13.5T16.8 13.3Q17.7 13.3 18.4 13.7T19.6 15.1Q20 16 20 17.2T19.6 19.3 18.5 20.7 16.8 21.2M16.5 19.9Q17.1 19.9 17.6 19.5 18 19.2 18.2 18.6 18.5 17.9 18.5 17.2 18.5 16.4 18.2 15.8T17.6 14.9Q17.1 14.5 16.5 14.5T15.4 14.9 14.7 15.8Q14.5 16.4 14.5 17.2T14.7 18.6 15.4 19.5Q15.8 19.9 16.5 19.9M24.3 21.1Q23.5 21.1 22.9 20.8 22.3 20.4 22 19.8T21.7 18.2V13.4H23.2V18Q23.2 18.9 23.6 19.3T24.8 19.8Q25.3 19.8 25.7 19.6T26.3 18.9Q26.6 18.5 26.6 17.9V13.4H28.1V21H26.6V19.1H26.8Q26.4 20.2 25.8 20.6 25.1 21.1 24.3 21.1M31.6 21H30.1V13.4H31.6zM30.8 12.2Q30.5 12.2 30.2 11.9T29.9 11.3 30.2 10.7 30.8 10.4 31.5 10.7 31.8 11.3 31.5 11.9 30.8 12.2M33.6 10.8H35.1V21H33.6zM40 21.2Q39.1 21.2 38.3 20.7T37.2 19.3Q36.8 18.4 36.8 17.2T37.2 15.1 38.3 13.7Q39.1 13.3 40 13.3 40.7 13.3 41.1 13.5T41.8 14L42.2 14.6H42.3V10.8H43.8V21H42.3V19.8H42.2L41.8 20.4Q41.6 20.7 41.1 20.9T40 21.2M40.3 19.9Q41 19.9 41.4 19.5 41.8 19.2 42.1 18.6T42.3 17.2Q42.3 16.4 42.1 15.8T41.4 14.9Q41 14.5 40.3 14.5 39.7 14.5 39.2 14.9 38.8 15.2 38.5 15.8T38.3 17.2Q38.3 17.9 38.6 18.6T39.2 19.5Q39.7 19.9 40.3 19.9"/></g><g><path fill="#fff" d="M53.5 23.9H52V13.4H53.5V14.6H53.6L54 14Q54.2 13.7 54.7 13.5T55.8 13.3Q56.7 13.3 57.4 13.7T58.6 15.1Q59 16 59 17.2T58.6 19.3 57.5 20.7 55.8 21.2Q55.1 21.2 54.7 20.9T54 20.4L53.6 19.8H53.5zM55.5 19.9Q56.1 19.9 56.6 19.5 57 19.2 57.2 18.6 57.5 17.9 57.5 17.2 57.5 16.4 57.2 15.8T56.6 14.9Q56.1 14.5 55.5 14.5T54.4 14.9 53.7 15.8Q53.5 16.4 53.5 17.2T53.7 18.6 54.4 19.5Q54.8 19.9 55.5 19.9M62.8 21.2Q62.1 21.2 61.5 20.9T60.6 20.1 60.2 18.8Q60.2 18.2 60.5 17.8T61.1 17.1L62.1 16.7 63.2 16.6 64.3 16.4 64.9 16.3 65.1 15.9V15.8Q65.1 15.4 64.9 15.1 64.8 14.8 64.4 14.6L63.6 14.5 62.8 14.6 62.2 15 61.9 15.5 60.4 15.2Q60.7 14.5 61.2 14.1T62.3 13.5 63.6 13.3L64.6 13.4 65.6 13.8Q66 14.1 66.3 14.6T66.6 15.9V21H65.1V20L64.6 20.5 63.9 21Q63.4 21.2 62.8 21.2M63.1 20Q63.8 20 64.2 19.7T64.9 19.1Q65.1 18.7 65.1 18.2V17.3L64.8 17.4 64.3 17.5 63.7 17.6 63.2 17.7Q62.8 17.7 62.5 17.9L61.9 18.2Q61.7 18.5 61.7 18.9L61.9 19.5 62.4 19.8Q62.7 20 63.1 20M71.4 21.2Q70.5 21.2 69.9 20.9T68.8 20.2Q68.4 19.7 68.3 19.1L69.7 18.8Q69.8 19.4 70.3 19.7 70.7 19.9 71.4 19.9T72.5 19.6Q73 19.3 73 18.9T72.7 18.3L71.9 17.9 70.6 17.7Q69.5 17.4 69 16.9T68.5 15.5Q68.5 14.9 68.9 14.3T69.9 13.5Q70.6 13.3 71.5 13.3 72.3 13.3 72.9 13.5T73.8 14.2Q74.2 14.6 74.3 15.2L73 15.5Q72.9 15.1 72.5 14.8T71.5 14.5Q70.8 14.5 70.4 14.7T70 15.4Q70 15.8 70.3 16.1L71.2 16.4 72.4 16.7Q73.5 17 74 17.5T74.5 18.8Q74.5 19.5 74.1 20T73 20.9 71.4 21.2M78.9 21.2Q78.1 21.2 77.4 20.9T76.4 20.2Q76 19.7 75.8 19.1L77.2 18.8Q77.4 19.4 77.8 19.7 78.2 19.9 78.9 19.9T80.1 19.6 80.5 18.9 80.2 18.3L79.4 17.9 78.1 17.7Q77.1 17.4 76.6 16.9T76 15.5Q76 14.9 76.4 14.3T77.5 13.5 79 13.3 80.4 13.5 81.4 14.2L81.9 15.2 80.5 15.5Q80.4 15.1 80 14.8 79.7 14.5 79 14.5T78 14.7Q77.6 15 77.6 15.4T77.8 16.1L78.7 16.4 80 16.7Q81 17 81.5 17.5T82 18.8Q82 19.5 81.6 20T80.5 20.9 78.9 21.2M85.2 21H83.7V13.4H85.2zM84.5 12.2Q84.1 12.2 83.8 11.9T83.5 11.3 83.8 10.7 84.5 10.4Q84.8 10.4 85.1 10.7T85.4 11.3 85.1 11.9 84.5 12.2M88.7 16.5V21H87.2V13.4H88.7V15.2H88.5Q88.9 14.2 89.5 13.7T91 13.3Q91.8 13.3 92.4 13.6T93.3 14.6Q93.6 15.2 93.6 16.1V21H92.1V16.3Q92.1 15.5 91.7 15T90.5 14.6Q90 14.6 89.6 14.8T89 15.4Q88.7 15.9 88.7 16.5M98.8 24Q98 24 97.3 23.8T96.2 23.2L95.6 22.4 96.9 21.8 97.2 22.2 97.8 22.6Q98.2 22.8 98.8 22.8 99.7 22.8 100.3 22.4T100.8 21.1V19.6H100.7L100.3 20.2 99.6 20.7Q99.2 20.9 98.5 20.9 97.6 20.9 96.9 20.5T95.7 19.2Q95.3 18.4 95.3 17.2 95.3 15.9 95.7 15.1T96.9 13.7Q97.6 13.3 98.5 13.3 99.2 13.3 99.6 13.5T100.3 14L100.7 14.6H100.8V13.4H102.3V21.1Q102.3 22.1 101.8 22.8T100.6 23.7Q99.8 24 98.8 24M98.8 19.6Q99.5 19.6 99.9 19.3T100.6 18.5Q100.8 17.9 100.8 17.1T100.6 15.8 99.9 14.9 98.8 14.5 97.7 14.9Q97.3 15.2 97.1 15.8 96.8 16.4 96.8 17.1T97.1 18.4 97.7 19.3Q98.2 19.6 98.8 19.6"/></g></svg>