<svg xmlns="http://www.w3.org/2000/svg" width="126" height="32" viewBox="0 0 126 32"><path fill="#fafafa" d="M6 0H120A6 6 0 0 1 126 6V26A6 6 0 0 1 120 32H6A6 6 0 0 1 0 26V6A6 6 0 0 1 6 0"/><g><path fill="#18181b" fill-opacity=".7" d="M16.2 21.2Q15.1 21.2 14.3 20.7T13.1 19.3 12.7 17.2 13.1 15.1 14.3 13.8 16.2 13.3L17.3 13.4 18.3 13.9 19 14.6Q19.3 15 19.4 15.5L18 15.9 17.8 15.3 17.4 14.9 16.9 14.6 16.2 14.5Q15.5 14.5 15.1 14.9T14.4 15.9 14.2 17.2Q14.2 18 14.4 18.6T15.1 19.5Q15.5 19.9 16.2 19.9L16.9 19.8 17.4 19.5 17.8 19.1 18 18.5 19.4 18.8Q19.3 19.4 19 19.8L18.3 20.5 17.4 21zM24.3 21.2Q23.2 21.2 22.4 20.7T21.2 19.3Q20.7 18.4 20.7 17.2T21.2 15.1Q21.6 14.2 22.4 13.8T24.3 13.3Q25.4 13.3 26.2 13.8T27.4 15.1Q27.9 16 27.9 17.2T27.4 19.3Q27 20.2 26.2 20.7T24.3 21.2M24.3 19.9Q25 19.9 25.5 19.5 25.9 19.2 26.1 18.5 26.4 17.9 26.4 17.2T26.1 15.9 25.5 14.9Q25 14.5 24.3 14.5T23.2 14.9 22.5 15.9 22.3 17.2 22.5 18.5 23.2 19.5Q23.6 19.9 24.3 19.9M33.4 21H31.7L28.9 13.4H30.5L32 17.7 32.4 19.1 32.8 20.6H32.3L32.7 19.1 33.1 17.7 34.6 13.4H36.3zM40.9 21.2Q39.8 21.2 38.9 20.7T37.7 19.3Q37.2 18.4 37.2 17.2 37.2 16.1 37.7 15.2T38.9 13.8Q39.7 13.3 40.8 13.3L42 13.5Q42.6 13.7 43.1 14.2T43.9 15.3Q44.2 16.1 44.2 17.1V17.6H38.1V16.5H43.4L42.7 16.9Q42.7 16.2 42.5 15.6 42.3 15.1 41.8 14.8T40.8 14.5Q40.1 14.5 39.7 14.8T39 15.6 38.7 16.7V17.5Q38.7 18.3 39 18.8T39.8 19.6 40.9 19.9L41.7 19.8 42.3 19.4 42.6 18.8 44.1 19.2Q43.9 19.8 43.4 20.2T42.4 20.9Q41.7 21.2 40.9 21.2M47.3 21H45.8V13.4H47.3V14.6H47.4Q47.6 14 48.1 13.6T49.3 13.2L49.6 13.3H49.9V14.7H49.6L49.1 14.6Q48.6 14.6 48.2 14.9T47.6 15.5Q47.3 15.9 47.3 16.4zM53.4 21.2Q52.6 21.2 52.1 20.9T51.1 20.1Q50.8 19.6 50.8 18.8 50.8 18.2 51 17.8L51.7 17.1 52.7 16.7 53.7 16.6 54.8 16.4 55.5 16.3 55.7 15.9V15.8Q55.7 15.4 55.5 15.1L55 14.6 54.2 14.5 53.3 14.6 52.8 15 52.4 15.5 51 15.2Q51.3 14.5 51.8 14.1T52.9 13.5 54.2 13.3L55.1 13.4Q55.7 13.5 56.1 13.8T56.9 14.6Q57.2 15.1 57.2 15.9V21H55.7V20H55.6L55.2 20.5 54.4 21Q54 21.2 53.4 21.2M53.7 20Q54.3 20 54.8 19.7 55.2 19.5 55.4 19.1 55.7 18.7 55.7 18.2V17.3L55.4 17.4 54.8 17.5 54.3 17.6 53.8 17.7 53 17.9 52.5 18.2Q52.3 18.5 52.3 18.9L52.5 19.5Q52.6 19.7 53 19.8 53.3 20 53.7 20M62.4 24Q61.5 24 60.8 23.8 60.2 23.6 59.8 23.2L59.1 22.4 60.4 21.8 60.8 22.2Q61 22.5 61.4 22.6T62.4 22.8Q63.2 22.8 63.8 22.4T64.3 21.1V19.6H64.2L63.8 20.2Q63.6 20.5 63.1 20.7T62 20.9Q61.1 20.9 60.4 20.5T59.3 19.2Q58.8 18.4 58.8 17.2 58.8 15.9 59.2 15.1T60.4 13.7Q61.1 13.3 62 13.3 62.7 13.3 63.2 13.5L63.9 14 64.3 14.6H64.4V13.4H65.8V21.1Q65.8 22.1 65.4 22.8T64.1 23.7Q63.4 24 62.4 24M62.4 19.6Q63 19.6 63.5 19.3 63.9 19 64.1 18.5T64.3 17.1Q64.3 16.4 64.1 15.8T63.5 14.9Q63 14.5 62.4 14.5T61.3 14.9 60.6 15.8Q60.4 16.4 60.4 17.1T60.6 18.4 61.3 19.3 62.4 19.6M71.2 21.2Q70 21.2 69.2 20.7T67.9 19.3 67.5 17.2Q67.5 16.1 67.9 15.2T69.2 13.8 71 13.3Q71.7 13.3 72.3 13.5T73.4 14.2 74.1 15.3Q74.4 16.1 74.4 17.1V17.6H68.3V16.5H73.7L73 16.9Q73 16.2 72.7 15.6 72.5 15.1 72.1 14.8T71 14.5 69.9 14.8 69.2 15.6 69 16.7V17.5Q69 18.3 69.3 18.8T70 19.6 71.2 19.9L71.9 19.8Q72.3 19.7 72.5 19.4 72.8 19.2 72.9 18.8L74.3 19.2Q74.1 19.8 73.7 20.2T72.6 20.9Q72 21.2 71.2 21.2"/></g><g><path fill="#18181b" d="M86.2 21.1Q85.3 21.1 84.6 20.8 83.9 20.4 83.4 19.8T82.9 18.3H84.4Q84.5 19 85 19.4T86.2 19.8 87.5 19.3Q88 18.9 88.3 18.1T88.6 16.1H88.5L87.8 16.8 87 17.3 86 17.5Q85.1 17.5 84.3 17T83.2 15.9Q82.8 15.1 82.8 14.1T83.2 12.4Q83.7 11.6 84.5 11.1T86.3 10.7L87.7 10.9 88.9 11.7Q89.4 12.3 89.7 13.2T90.1 15.6Q90.1 16.9 89.8 17.9 89.5 19 89 19.7T87.8 20.8Q87.1 21.1 86.2 21.1M86.3 16.2 87.1 16Q87.5 15.9 87.8 15.6L88.2 14.9 88.4 14.1Q88.4 13.5 88.1 13.1T87.4 12.3Q86.9 12 86.3 12 85.8 12 85.3 12.3T84.6 13Q84.3 13.5 84.3 14.1T84.6 15.2 85.3 15.9 86.3 16.2M95.2 21.1Q94.2 21.1 93.3 20.8 92.5 20.4 92.1 19.8 91.6 19.1 91.6 18.3 91.6 17.6 91.9 17.1T92.6 16.2Q93.1 15.8 93.6 15.7 92.9 15.5 92.4 14.8T92 13.4 92.4 12 93.5 11 95.2 10.7 96.9 11 98.1 12 98.5 13.4 98 14.8 96.8 15.7Q97.4 15.8 97.8 16.2 98.3 16.5 98.6 17.1 98.9 17.6 98.9 18.3 98.9 19.1 98.4 19.8T97.1 20.8 95.2 21.1M95.2 19.9Q95.8 19.9 96.3 19.7L97 19.1Q97.3 18.7 97.3 18.2T97 17.3Q96.7 16.8 96.3 16.6 95.8 16.4 95.2 16.4T94.2 16.6 93.4 17.2L93.2 18.2Q93.2 18.7 93.4 19.1L94.1 19.7Q94.6 19.9 95.2 19.9M95.2 15.1Q95.7 15.1 96.1 14.9T96.7 14.4 97 13.5Q97 13.1 96.7 12.7T96.1 12.2 95.2 12 94.3 12.2Q93.9 12.3 93.7 12.7L93.5 13.5Q93.5 14 93.7 14.4 93.9 14.7 94.3 14.9T95.2 15.1M103.2 15.4Q102.5 15.4 102 15.1T101.3 14.4Q101.1 13.9 101.1 13.3V12.8Q101.1 12.2 101.3 11.7T102 10.9 103.2 10.7 104.3 10.9Q104.8 11.2 105 11.7T105.2 12.8V13.3Q105.2 13.9 105 14.4T104.3 15.1Q103.8 15.4 103.2 15.4M103.2 14.4Q103.7 14.4 103.9 14.1L104.1 13.3V12.8L103.9 12Q103.7 11.7 103.2 11.7T102.5 12L102.3 12.8V13.3L102.5 14.1Q102.7 14.4 103.2 14.4M110 21.2Q109.3 21.2 108.9 20.9T108.2 20.1 107.9 19.1V18.5Q107.9 18 108.2 17.5T108.9 16.7 110 16.4 111.1 16.7 111.8 17.5 112.1 18.5V19.1Q112.1 19.6 111.8 20.1T111.1 20.9 110 21.2M110 20.2Q110.5 20.2 110.7 19.8 110.9 19.5 110.9 19.1V18.5Q110.9 18.1 110.7 17.8 110.5 17.4 110 17.4T109.3 17.8Q109.1 18.1 109.1 18.5V19.1Q109.1 19.5 109.3 19.8 109.5 20.2 110 20.2M103.7 21H102.4L109.4 10.8H110.7z"/></g></svg>