<svg xmlns="http://www.w3.org/2000/svg" width="443" height="24" viewBox="0 0 443 24"><clipPath id="satori_cp-id"><path d="M6 0H437A6 6 0 0 1 443 6V18A6 6 0 0 1 437 24H6A6 6 0 0 1 0 18V6A6 6 0 0 1 6 0"/></clipPath><mask id="satori_om-id"><path fill="#fff" d="M0 0H443V24H0z"/></mask><path fill="#181717" d="M0 0H87V24H0z" clip-path="url(#satori_cp-id)" mask="url(#satori_om-id)"/><clipPath id="satori_cp-id-0-0-1" clip-path="url(#satori_cp-id)"><path d="M8 6H20V18H8z"/></clipPath><mask id="satori_om-id-0-0-1"><path fill="#fff" d="M8 6H20V18H8z" mask="url(#satori_om-id)"/></mask><image width="12" height="12" x="8" y="6" clip-path="url(#satori_cp-id-0-0-1)" href="data:image/svg+xml;utf8,%3Csvg xmlns=%22http://www.w3.org/2000/svg%22 width=%2212%22 height=%2212%22 viewBox=%220 0 24 24%22%3E%3Cpath fill=%22%23ffffff%22 d=%22m12.672.668 3.059 6.197 6.838.993a.75.75 0 0 1 .416 1.28l-4.948 4.823 1.168 6.812a.75.75 0 0 1-1.088.79L12 18.347l-6.116 3.216a.75.75 0 0 1-1.088-.791l1.168-6.811-4.948-4.823a.749.749 0 0 1 .416-1.279l6.838-.994L11.327.668a.75.75 0 0 1 1.345 0Z%22 fill-rule=%22undefined%22%3E%3C/path%3E%3C/svg%3E" mask="url(#satori_om-id-0-0-1)" preserveAspectRatio="none"/><g clip-path="url(#satori_cp-id)" mask="url(#satori_om-id)"><path fill="rgba(255,255,255,0.7)" d="M27.2 16.1Q26.5 16.1 26 15.9T25 15.3Q24.7 14.9 24.6 14.3L25.8 14.1Q25.9 14.6 26.3 14.8 26.7 15.1 27.2 15.1T28.2 14.8Q28.6 14.6 28.6 14.2T28.4 13.7L27.7 13.4 26.6 13.1Q25.7 12.9 25.2 12.5 24.8 12 24.8 11.3T25.1 10.3 26 9.6Q26.6 9.4 27.3 9.4T28.5 9.6 29.3 10.1L29.8 11 28.6 11.3Q28.5 10.9 28.2 10.6T27.3 10.4Q26.8 10.4 26.4 10.6 26.1 10.9 26.1 11.2 26.1 11.6 26.3 11.8T27.1 12.1L28.1 12.3Q29 12.5 29.5 13T29.9 14.1Q29.9 14.7 29.6 15.2L28.6 15.9Q28 16.1 27.2 16.1M30.6 9.4H34.1V10.5H30.6zM31.5 14.3V7.9H32.8V14.2Q32.8 14.6 33 14.8T33.5 15H33.8L34.1 14.9 34.3 16 33.9 16.1H33.4Q32.5 16.1 32 15.6T31.5 14.3M37.2 16.1Q36.6 16.1 36.1 15.9T35.3 15.2 35 14.1 35.2 13.2L35.8 12.7 36.6 12.3 37.6 12.2 38.5 12.1 39 11.9Q39.2 11.8 39.2 11.6L39.1 10.9 38.6 10.6Q38.4 10.4 38 10.4L37.2 10.5 36.7 10.9 36.4 11.3 35.2 11Q35.4 10.4 35.9 10.1T36.8 9.5L37.9 9.4 38.8 9.5 39.6 9.8Q40 10 40.2 10.5 40.5 10.9 40.5 11.7V16H39.2V15.1Q39.1 15.4 38.8 15.6L38.2 16zM37.5 15.1Q38.1 15.1 38.4 14.9T39 14.4L39.2 13.6V12.8L38.9 12.9 38.5 13 38 13.1H37.6L37 13.3 36.5 13.6Q36.3 13.8 36.3 14.2T36.5 14.7Q36.6 14.9 36.9 15T37.5 15.1M43.5 16H42.2V9.4H43.5V10.5Q43.7 10 44.2 9.7T45.2 9.4H45.8V10.6H45.1L44.3 10.7Q43.9 10.9 43.7 11.3T43.5 12zM49.2 16.1Q48.5 16.1 48 15.9T47 15.3Q46.7 14.9 46.6 14.3L47.8 14.1Q47.9 14.6 48.3 14.8 48.7 15.1 49.2 15.1 49.9 15.1 50.2 14.8T50.6 14.2Q50.6 13.9 50.4 13.7L49.7 13.4 48.6 13.1Q47.7 12.9 47.2 12.5 46.8 12 46.8 11.3T47.1 10.3 48 9.6Q48.6 9.4 49.3 9.4T50.5 9.6 51.3 10.1L51.8 11 50.6 11.3Q50.5 10.9 50.2 10.6T49.3 10.4Q48.8 10.4 48.4 10.6 48.1 10.9 48.1 11.2 48.1 11.6 48.3 11.8T49.1 12.1L50.1 12.3Q51 12.5 51.5 13T51.9 14.1Q51.9 14.7 51.6 15.2L50.6 15.9Q50 16.1 49.2 16.1"/></g><g clip-path="url(#satori_cp-id)" mask="url(#satori_om-id)"><path fill="#fff" d="M60.6 16.1Q59.7 16.1 59.1 15.8T58.1 15 57.7 13.7H59Q59 14.1 59.2 14.4T59.8 14.8Q60.1 15 60.6 15T61.4 14.8Q61.8 14.5 62 14.1 62.3 13.7 62.3 13.2T62 12.3 61.4 11.6 60.5 11.4L59.7 11.5Q59.3 11.6 59.1 11.9L57.8 11.7 58.3 7.3H63.1V8.4H59.4L59.2 10.8 59.9 10.4 60.8 10.3Q61.4 10.3 61.9 10.5T62.8 11.1 63.4 12 63.6 13.2Q63.6 14 63.2 14.7T62.1 15.7 60.6 16.1M67.8 16.1Q67 16.1 66.3 15.8T65.3 15Q64.9 14.4 64.9 13.7H66.2Q66.2 14.1 66.5 14.4T67 14.8L67.8 15Q68.3 15 68.7 14.8T69.3 14.1 69.5 13.2 69.3 12.3 68.6 11.6Q68.3 11.4 67.7 11.4L66.9 11.5Q66.5 11.6 66.3 11.9L65.1 11.7 65.6 7.3H70.4V8.4H66.7L66.4 10.8 67.1 10.4 68 10.3Q68.6 10.3 69.1 10.5T70 11.1 70.6 12 70.8 13.2Q70.8 14 70.4 14.7T69.4 15.7Q68.7 16.1 67.8 16.1M74 16H72.6L76.4 8.5V8.4H72V7.3H77.8V8.5z"/></g><path fill="rgba(255,255,255,0.15)" d="M87 0H88V24H87z" clip-path="url(#satori_cp-id)" mask="url(#satori_om-id)"/><path fill="#181717" d="M88 0H191V24H88z" clip-path="url(#satori_cp-id)" mask="url(#satori_om-id)"/><clipPath id="satori_cp-id-1-1-1" clip-path="url(#satori_cp-id)"><path d="M96 6H111V18H96z"/></clipPath><mask id="satori_om-id-1-1-1"><path fill="#fff" d="M96 6H111V18H96z" mask="url(#satori_om-id)"/></mask><image width="15" height="12" x="96" y="6" clip-path="url(#satori_cp-id-1-1-1)" href="data:image/svg+xml;utf8,%3Csvg xmlns=%22http://www.w3.org/2000/svg%22 width=%2215%22 height=%2212%22 viewBox=%220 0 640 512%22%3E%3Cpath fill=%22%23ffffff%22 d=%22M256 336h-.02c0-16.18 1.34-8.73-85.05-181.51-17.65-35.29-68.19-35.36-85.87 0C-2.06 328.75.02 320.33.02 336H0c0 44.18 57.31 80 128 80s128-35.82 128-80zM128 176l72 144H56l72-144zm511.98 160c0-16.18 1.34-8.73-85.05-181.51-17.65-35.29-68.19-35.36-85.87 0-87.12 174.26-85.04 165.84-85.04 181.51H384c0 44.18 57.31 80 128 80s128-35.82 128-80h-.02zM440 320l72-144 72 144H440zm88 128H352V153.25c23.51-10.29 41.16-31.48 46.39-57.25H528c8.84 0 16-7.16 16-16V48c0-8.84-7.16-16-16-16H383.64C369.04 12.68 346.09 0 320 0s-49.04 12.68-63.64 32H112c-8.84 0-16 7.16-16 16v32c0 8.84 7.16 16 16 16h129.61c5.23 25.76 22.87 46.96 46.39 57.25V448H112c-8.84 0-16 7.16-16 16v32c0 8.84 7.16 16 16 16h416c8.84 0 16-7.16 16-16v-32c0-8.84-7.16-16-16-16z%22 fill-rule=%22undefined%22%3E%3C/path%3E%3C/svg%3E" mask="url(#satori_om-id-1-1-1)" preserveAspectRatio="none"/><g clip-path="url(#satori_cp-id)" mask="url(#satori_om-id)"><path fill="rgba(255,255,255,0.7)" d="M115.9 7.3H117.2V16H115.9zM120.2 16H118.9V9.4H120.2zM119.5 8.4Q119.2 8.4 119 8.2T118.7 7.7 119 7.1Q119.2 6.9 119.5 6.9 119.9 6.9 120.1 7.1 120.4 7.4 120.4 7.7T120.1 8.2 119.5 8.4M124.7 16.1Q123.7 16.1 123.1 15.7T122 14.5 121.6 12.8Q121.6 11.7 122 11 122.4 10.2 123.1 9.8 123.7 9.4 124.7 9.4L125.6 9.5Q126.1 9.6 126.4 9.9 126.8 10.1 127 10.5 127.3 10.8 127.4 11.3L126.2 11.6 126 11.1 125.7 10.8 125.2 10.5H124.7Q124.1 10.5 123.7 10.8T123.1 11.6 122.9 12.8 123.1 13.9 123.7 14.7 124.7 15H125.2L125.7 14.7Q125.9 14.6 126 14.3L126.2 13.9 127.4 14.2 127.1 15 126.4 15.6Q126.1 15.9 125.6 16zM131.7 16.1Q130.7 16.1 130 15.7T128.9 14.5 128.5 12.8 128.9 11 130 9.8Q130.6 9.4 131.6 9.4L132.6 9.6Q133.2 9.7 133.6 10.1T134.2 11.1Q134.5 11.8 134.5 12.7V13.1H129.3V12.2H133.8L133.2 12.5Q133.2 11.9 133 11.4T132.5 10.7Q132.1 10.4 131.6 10.4T130.6 10.7 130 11.4 129.8 12.3V13Q129.8 13.7 130.1 14.1T130.7 14.8Q131.1 15.1 131.7 15.1L132.3 15 132.8 14.7 133.2 14.1 134.4 14.4Q134.2 14.9 133.8 15.3T132.9 15.9 131.7 16.1M137.2 12.1V16H135.9V9.4H137.1V11.1H137Q137.3 10.2 137.8 9.8T139.1 9.4 140.3 9.6Q140.8 9.9 141.1 10.5 141.4 11 141.4 11.8V16H140.1V12Q140.1 11.3 139.7 10.9T138.7 10.5L137.9 10.7 137.4 11.2Q137.2 11.6 137.2 12.1M145.5 16.1Q144.7 16.1 144.2 15.9T143.3 15.3 142.8 14.3L144 14.1Q144.2 14.6 144.5 14.8 144.9 15.1 145.5 15.1T146.5 14.8Q146.8 14.6 146.8 14.2T146.6 13.7 145.9 13.4L144.8 13.1Q143.9 12.9 143.4 12.5 143 12 143 11.3T143.3 10.3L144.2 9.6Q144.8 9.4 145.5 9.4T146.8 9.6L147.6 10.1Q147.9 10.5 148 11L146.9 11.3 146.4 10.6Q146.1 10.4 145.6 10.4T144.7 10.6Q144.3 10.9 144.3 11.2 144.3 11.6 144.5 11.8L145.3 12.1 146.4 12.3Q147.3 12.5 147.7 13T148.2 14.1 147.8 15.2Q147.5 15.6 146.9 15.9T145.5 16.1M152.4 16.1Q151.4 16.1 150.7 15.7T149.6 14.5 149.3 12.8 149.6 11Q150 10.2 150.7 9.8T152.3 9.4L153.4 9.6Q153.9 9.7 154.3 10.1T155 11.1 155.2 12.7V13.1H150V12.2H154.5L153.9 12.5 153.8 11.4Q153.6 10.9 153.2 10.7 152.8 10.4 152.3 10.4T151.4 10.7 150.8 11.4 150.6 12.3V13Q150.6 13.7 150.8 14.1T151.4 14.8 152.4 15.1L153.1 15 153.6 14.7 153.9 14.1 155.1 14.4 154.6 15.3Q154.2 15.7 153.7 15.9T152.4 16.1"/></g><g clip-path="url(#satori_cp-id)" mask="url(#satori_om-id)"><path fill="#fff" d="M162.3 16H161V7.3H162.9L164.8 12.3 165 12.8 165.2 13.6 165.4 14.4 165.6 15.1H165.3L165.5 14.4 165.7 13.6 165.9 12.9 166.1 12.3 168 7.3H170V16H168.7V8.2H168.8L168.6 9.1 168.3 10 168 10.7 167.8 11.3 166 16H164.9L163.1 11.3 162.9 10.7 162.6 10 162.4 9.1 162.1 8.2H162.2V9.8L162.3 10.6zM171.9 7.3H173.3V16H171.9zM177.5 8.4H174.7V7.3H181.5V8.4H178.8V16H177.5z"/></g><path fill="rgba(255,255,255,0.15)" d="M191 0H192V24H191z" clip-path="url(#satori_cp-id)" mask="url(#satori_om-id)"/><path fill="#181717" d="M192 0H306V24H192z" clip-path="url(#satori_cp-id)" mask="url(#satori_om-id)"/><clipPath id="satori_cp-id-2-1-1" clip-path="url(#satori_cp-id)"><path d="M200 6H212V18H200z"/></clipPath><mask id="satori_om-id-2-1-1"><path fill="#fff" d="M200 6H212V18H200z" mask="url(#satori_om-id)"/></mask><image width="12" height="12" x="200" y="6" clip-path="url(#satori_cp-id-2-1-1)" href="data:image/svg+xml;utf8,%3Csvg xmlns=%22http://www.w3.org/2000/svg%22 width=%2212%22 height=%2212%22 viewBox=%220 0 24 24%22%3E%3Cpath fill=%22%23ffffff%22 d=%22M3.5 8a5.5 5.5 0 1 1 8.596 4.547 9.005 9.005 0 0 1 5.9 8.18.751.751 0 0 1-1.5.045 7.5 7.5 0 0 0-14.993 0 .75.75 0 0 1-1.499-.044 9.005 9.005 0 0 1 5.9-8.181A5.496 5.496 0 0 1 3.5 8ZM9 4a4 4 0 1 0 0 8 4 4 0 0 0 0-8Zm8.29 4c-.148 0-.292.01-.434.03a.75.75 0 1 1-.212-1.484 4.53 4.53 0 0 1 3.38 8.097 6.69 6.69 0 0 1 3.956 6.107.75.75 0 0 1-1.5 0 5.193 5.193 0 0 0-3.696-4.972l-.534-.16v-1.676l.41-.209A3.03 3.03 0 0 0 17.29 8Z%22 fill-rule=%22undefined%22%3E%3C/path%3E%3C/svg%3E" mask="url(#satori_om-id-2-1-1)" preserveAspectRatio="none"/><g clip-path="url(#satori_cp-id)" mask="url(#satori_om-id)"><path fill="rgba(255,255,255,0.7)" d="M219.6 16.1Q218.7 16.1 218 15.7T216.9 14.5 216.6 12.8Q216.6 11.7 216.9 11 217.3 10.2 218 9.8T219.6 9.4L220.6 9.5 221.4 9.9 222 10.5 222.4 11.3 221.1 11.6Q221.1 11.3 220.9 11.1L220.6 10.8 220.2 10.5H219.6Q219 10.5 218.6 10.8L218.1 11.6Q217.9 12.1 217.9 12.8T218.1 13.9 218.6 14.7 219.6 15H220.2L220.6 14.7 221 14.3 221.2 13.9 222.4 14.2 222 15 221.4 15.6 220.6 16zM226.5 16.1Q225.6 16.1 224.9 15.7 224.3 15.3 223.9 14.5T223.5 12.8Q223.5 11.7 223.9 11 224.3 10.2 224.9 9.8T226.5 9.4 228.2 9.8 229.2 11 229.6 12.8 229.2 14.5Q228.8 15.3 228.2 15.7T226.5 16.1M226.5 15Q227.1 15 227.5 14.7T228.1 13.9 228.3 12.8 228.1 11.6 227.5 10.8 226.5 10.5 225.6 10.8 225 11.6 224.8 12.8Q224.8 13.4 225 13.9T225.6 14.7 226.5 15M232.3 12.1V16H231V9.4H232.3V11.1H232.1Q232.4 10.2 233 9.8 233.5 9.4 234.3 9.4 235 9.4 235.5 9.6T236.2 10.5Q236.5 11 236.5 11.8V16H235.2V12Q235.2 11.3 234.9 10.9 234.5 10.5 233.9 10.5T233.1 10.7Q232.7 10.9 232.5 11.2 232.3 11.6 232.3 12.1M237.5 9.4H241.1V10.5H237.5zM238.5 14.3V7.9H239.8V14.2L239.9 14.8Q240.1 15 240.5 15H240.7L241 14.9 241.2 16 240.8 16.1H240.3Q239.4 16.1 239 15.6T238.5 14.3M243.6 16H242.3V9.4H243.6V10.5H243.7Q243.8 10 244.3 9.7T245.3 9.4H245.9V10.6H245.2L244.4 10.7Q244 10.9 243.8 11.3T243.6 12zM248.3 16H247V9.4H248.3zM247.6 8.4Q247.3 8.4 247.1 8.2T246.8 7.7 247.1 7.1Q247.3 6.9 247.6 6.9 248 6.9 248.2 7.1L248.4 7.7Q248.4 8 248.2 8.2T247.6 8.4M253.3 16.1Q252.7 16.1 252.3 15.9T251.7 15.5L251.4 15H251.3V16H250V7.3H251.3V10.5H251.4L251.7 10 252.3 9.6Q252.6 9.4 253.3 9.4T254.7 9.8Q255.3 10.2 255.6 10.9T256 12.7 255.6 14.6Q255.3 15.3 254.7 15.7T253.3 16.1M253 15Q253.5 15 253.9 14.7T254.5 13.9 254.7 12.7 254.5 11.6 253.9 10.8 253 10.5 252 10.7L251.5 11.5Q251.3 12 251.3 12.7T251.5 13.9 252 14.7 253 15M259.7 16.1Q259 16.1 258.5 15.8T257.7 15 257.4 13.6V9.4H258.7V13.5Q258.7 14.2 259.1 14.6T260.1 15L260.9 14.8Q261.2 14.6 261.4 14.2T261.6 13.3V9.4H262.9V16H261.7V14.4H261.8Q261.5 15.3 261 15.7T259.7 16.1M263.9 9.4H267.4V10.5H263.9zM264.8 14.3V7.9H266.1V14.2Q266.1 14.6 266.3 14.8T266.9 15H267.1L267.4 14.9 267.6 16 267.2 16.1H266.7Q265.8 16.1 265.3 15.6T264.8 14.3M271.5 16.1Q270.6 16.1 269.9 15.7T268.8 14.5 268.4 12.8Q268.4 11.7 268.8 11 269.2 10.2 269.9 9.8T271.5 9.4 273.1 9.8 274.2 11 274.5 12.8 274.2 14.5Q273.8 15.3 273.1 15.7T271.5 16.1M271.5 15Q272.1 15 272.5 14.7T273 13.9 273.2 12.8 273 11.6Q272.9 11.1 272.5 10.8T271.5 10.5 270.5 10.8 269.9 11.6 269.7 12.8 269.9 13.9 270.5 14.7 271.5 15M277.3 16H276V9.4H277.2V10.5H277.3Q277.5 10 277.9 9.7 278.4 9.4 279 9.4H279.5V10.6H278.8L278 10.7Q277.7 10.9 277.5 11.3T277.3 12zM283 16.1Q282.3 16.1 281.7 15.9 281.2 15.7 280.8 15.3T280.3 14.3L281.5 14.1Q281.7 14.6 282 14.8 282.4 15.1 283 15.1T284 14.8Q284.3 14.6 284.3 14.2T284.1 13.7 283.4 13.4L282.3 13.1Q281.4 12.9 281 12.5 280.5 12 280.5 11.3T280.8 10.3L281.7 9.6Q282.3 9.4 283 9.4T284.3 9.6 285.1 10.1Q285.4 10.5 285.5 11L284.4 11.3Q284.3 10.9 283.9 10.6 283.6 10.4 283.1 10.4T282.2 10.6Q281.8 10.9 281.8 11.2 281.8 11.6 282 11.8L282.8 12.1 283.9 12.3Q284.8 12.5 285.2 13T285.7 14.1 285.3 15.2Q285 15.6 284.4 15.9T283 16.1"/></g><g clip-path="url(#satori_cp-id)" mask="url(#satori_om-id)"><path fill="#fff" d="M293.5 16H292.1L295.9 8.5V8.4H291.5V7.3H297.3V8.5z"/></g><path fill="rgba(255,255,255,0.15)" d="M306 0H307V24H306z" clip-path="url(#satori_cp-id)" mask="url(#satori_om-id)"/><path fill="#181717" d="M307 0H443V24H307z" clip-path="url(#satori_cp-id)" mask="url(#satori_om-id)"/><clipPath id="satori_cp-id-3-1-1" clip-path="url(#satori_cp-id)"><path d="M315 6H327V18H315z"/></clipPath><mask id="satori_om-id-3-1-1"><path fill="#fff" d="M315 6H327V18H315z" mask="url(#satori_om-id)"/></mask><image width="12" height="12" x="315" y="6" clip-path="url(#satori_cp-id-3-1-1)" href="data:image/svg+xml;utf8,%3Csvg xmlns=%22http://www.w3.org/2000/svg%22 width=%2212%22 height=%2212%22 viewBox=%220 0 24 24%22%3E%3Cpath fill=%22%23ffffff%22 d=%22M16.944 11h4.306a.75.75 0 0 1 0 1.5h-4.306a5.001 5.001 0 0 1-9.888 0H2.75a.75.75 0 0 1 0-1.5h4.306a5.001 5.001 0 0 1 9.888 0Zm-1.444.75a3.5 3.5 0 1 0-7 0 3.5 3.5 0 0 0 7 0Z%22 fill-rule=%22undefined%22%3E%3C/path%3E%3C/svg%3E" mask="url(#satori_om-id-3-1-1)" preserveAspectRatio="none"/><g clip-path="url(#satori_cp-id)" mask="url(#satori_om-id)"><path fill="rgba(255,255,255,0.7)" d="M331.9 7.3H333.2V16H331.9zM336.7 16.1Q336.1 16.1 335.6 15.9T334.8 15.2 334.5 14.1 334.7 13.2 335.3 12.7L336.1 12.3 337 12.2 338 12.1 338.5 11.9Q338.7 11.8 338.7 11.6 338.7 11.2 338.5 10.9 338.4 10.7 338.1 10.6 337.8 10.4 337.4 10.4T336.7 10.5L336.2 10.9 335.9 11.3 334.7 11Q334.9 10.4 335.3 10.1L336.3 9.5 337.4 9.4 338.2 9.5 339.1 9.8Q339.5 10 339.7 10.5 340 10.9 340 11.7V16H338.7V15.1L338.3 15.6 337.6 16zM337 15.1Q337.5 15.1 337.9 14.9T338.5 14.4L338.7 13.6V12.8L338.4 12.9 338 13 337.5 13.1H337.1L336.4 13.3 336 13.6Q335.8 13.8 335.8 14.2L335.9 14.7 336.4 15zM344.1 16.1Q343.3 16.1 342.8 15.9T341.9 15.3 341.4 14.3L342.6 14.1Q342.8 14.6 343.1 14.8 343.5 15.1 344.1 15.1T345.1 14.8Q345.4 14.6 345.4 14.2T345.2 13.7 344.5 13.4L343.4 13.1Q342.5 12.9 342 12.5 341.6 12 341.6 11.3T341.9 10.3L342.8 9.6Q343.4 9.4 344.1 9.4T345.3 9.6Q345.9 9.8 346.2 10.1 346.5 10.5 346.6 11L345.5 11.3 345 10.6Q344.7 10.4 344.1 10.4 343.6 10.4 343.3 10.6T342.9 11.2 343.1 11.8L343.9 12.1 345 12.3Q345.9 12.5 346.3 13T346.8 14.1 346.4 15.2Q346.1 15.6 345.5 15.9T344.1 16.1M347.4 9.4H351V10.5H347.4zM348.4 14.3V7.9H349.7V14.2L349.8 14.8Q350 15 350.4 15H350.6L350.9 14.9 351.2 16 350.7 16.1H350.2Q349.4 16.1 348.9 15.6T348.4 14.3M358.2 16.1Q357.3 16.1 356.6 15.7T355.5 14.5 355.1 12.8Q355.1 11.7 355.5 11 355.9 10.2 356.6 9.8T358.2 9.4L359.2 9.5 360 9.9 360.6 10.5 360.9 11.3 359.7 11.6Q359.7 11.3 359.5 11.1L359.2 10.8 358.8 10.5H358.2Q357.6 10.5 357.2 10.8T356.6 11.6L356.5 12.8 356.6 13.9Q356.8 14.4 357.2 14.7T358.2 15H358.8L359.2 14.7 359.6 14.3 359.7 13.9 361 14.2 360.6 15 360 15.6 359.2 16zM365.1 16.1Q364.2 16.1 363.5 15.7T362.5 14.5Q362.1 13.8 362.1 12.8 362.1 11.7 362.5 11 362.8 10.2 363.5 9.8T365.1 9.4 366.7 9.8 367.8 11 368.2 12.8 367.8 14.5Q367.4 15.3 366.7 15.7 366.1 16.1 365.1 16.1M365.1 15Q365.7 15 366.1 14.7T366.7 13.9 366.9 12.8 366.7 11.6 366.1 10.8 365.1 10.5 364.2 10.8 363.6 11.6 363.4 12.8Q363.4 13.4 363.6 13.9T364.2 14.7Q364.5 15 365.1 15M370.9 16H369.6V9.4H370.8L370.9 11H370.8Q370.9 10.4 371.2 10.1T371.9 9.5 372.7 9.3Q373.4 9.3 373.9 9.8T374.5 11H374.3Q374.4 10.5 374.8 10.1 375.1 9.7 375.5 9.5L376.5 9.3Q377.1 9.3 377.5 9.6T378.3 10.3Q378.5 10.8 378.5 11.6V16H377.3V11.7Q377.3 11.1 376.9 10.8T376 10.5L375.3 10.6Q375 10.8 374.9 11.1T374.7 11.8V16H373.5V11.6Q373.5 11.1 373.1 10.8 372.8 10.5 372.3 10.5L371.6 10.6 371.1 11.1 370.9 11.9zM381.6 16H380.3V9.4H381.5V11H381.4Q381.6 10.4 381.9 10.1T382.6 9.5 383.4 9.3Q384.1 9.3 384.5 9.8T385.1 11H385Q385.1 10.5 385.4 10.1T386.2 9.5Q386.6 9.3 387.1 9.3T388.2 9.6Q388.7 9.8 388.9 10.3 389.2 10.8 389.2 11.6V16H387.9V11.7Q387.9 11.1 387.6 10.8 387.2 10.5 386.7 10.5L386 10.6 385.5 11.1 385.4 11.8V16H384.1V11.6Q384.1 11.1 383.8 10.8 383.4 10.5 382.9 10.5L382.2 10.6Q381.9 10.8 381.8 11.1L381.6 11.9zM392.2 16H390.9V9.4H392.2zM391.6 8.4 391 8.2Q390.8 8 390.8 7.7T391 7.1L391.6 6.9 392.2 7.1 392.4 7.7Q392.4 8 392.2 8.2zM393.2 9.4H396.8V10.5H393.2zM394.2 14.3V7.9H395.5V14.2L395.6 14.8Q395.8 15 396.2 15H396.4L396.7 14.9 396.9 16 396.5 16.1H396Q395.2 16.1 394.7 15.6T394.2 14.3"/></g><g clip-path="url(#satori_cp-id)" mask="url(#satori_om-id)"><path fill="#fff" d="M402.1 9.4H405.7V10.5H402.1zM403.1 14.3V7.9H404.4V14.2L404.5 14.8Q404.7 15 405.1 15H405.3L405.6 14.9 405.8 16 405.4 16.1H404.9Q404.1 16.1 403.6 15.6T403.1 14.3M409.7 16.1Q408.8 16.1 408.1 15.7T407 14.5 406.6 12.8Q406.6 11.7 407 11 407.4 10.2 408.1 9.8T409.7 9.4 411.3 9.8 412.4 11 412.8 12.8 412.4 14.5Q412 15.3 411.3 15.7T409.7 16.1M409.7 15Q410.3 15 410.7 14.7T411.3 13.9 411.5 12.8 411.3 11.6 410.7 10.8 409.7 10.5 408.7 10.8 408.1 11.6L408 12.8 408.1 13.9Q408.3 14.4 408.7 14.7T409.7 15M416.6 16.1Q415.8 16.1 415.2 15.7T414.2 14.6Q413.9 13.8 413.9 12.7T414.3 10.9 415.2 9.8Q415.9 9.4 416.6 9.4T417.6 9.6 418.2 10L418.5 10.5H418.6V7.3H419.9V16H418.6V15H418.5L418.2 15.5 417.6 15.9Q417.2 16.1 416.6 16.1M416.9 15Q417.5 15 417.8 14.7T418.4 13.9 418.6 12.7 418.4 11.5 417.9 10.7Q417.5 10.5 416.9 10.5T416 10.8Q415.6 11.1 415.4 11.6T415.2 12.7 415.4 13.9 416 14.7 416.9 15M423.5 16.1Q422.8 16.1 422.3 15.9T421.5 15.2 421.2 14.1 421.5 13.2L422 12.7 422.8 12.3 423.8 12.2 424.7 12.1 425.2 11.9Q425.4 11.8 425.4 11.6L425.3 10.9 424.8 10.6Q424.6 10.4 424.2 10.4L423.4 10.5 422.9 10.9 422.6 11.3 421.4 11Q421.6 10.4 422.1 10.1T423 9.5L424.1 9.4 425 9.5 425.8 9.8Q426.2 10 426.5 10.5T426.7 11.7V16H425.4V15.1Q425.3 15.4 425 15.6L424.4 16zM423.7 15.1Q424.3 15.1 424.6 14.9T425.2 14.4L425.4 13.6V12.8L425.1 12.9 424.7 13 424.2 13.1H423.8L423.2 13.3 422.7 13.6Q422.5 13.8 422.5 14.2T422.7 14.7 423.1 15 423.7 15.1M428.3 18.4 428.7 17.3H428.8L429.4 17.4 429.9 17.1 430.2 16.5 430.3 16 427.8 9.4H429.2L430.5 13.2 430.9 14.4 431.2 15.6H430.8L431.1 14.4 431.5 13.2 432.8 9.4H434.2L431.3 16.9Q431.2 17.4 430.9 17.8L430.2 18.3Q429.8 18.5 429.2 18.5H428.7z"/></g></svg>