<svg xmlns="http://www.w3.org/2000/svg" width="112" height="32" viewBox="0 0 112 32"><path fill="#8b5cf6" d="M6 0H106A6 6 0 0 1 112 6V26A6 6 0 0 1 106 32H6A6 6 0 0 1 0 26V6A6 6 0 0 1 6 0"/><g><path fill="#fff" d="M12.7.7 15.7 6.9 22.6 7.9A1 1 0 0 1 23 9L18 14 19.2 20.8A1 1 0 0 1 18.2 21.6L12 18.3 5.9 21.6A.8.8 0 0 1 4.8 20.8L6 14 1 9A1 1 0 0 1 1.4 8L8.3 6.9 11.3.7A.8.8 0 0 1 12.7.7" transform="translate(12 8)scale(.66667)"/></g><g><path fill="#fff" fill-opacity=".7" d="M37.8 21.2Q36.9 21.2 36.3 20.9T35.2 20.2Q34.8 19.7 34.7 19.1L36.1 18.8Q36.2 19.4 36.7 19.7 37.1 19.9 37.8 19.9T38.9 19.6 39.4 18.9 39.1 18.3L38.3 17.9 37 17.7Q35.9 17.4 35.4 16.9T34.9 15.5Q34.9 14.9 35.3 14.3T36.3 13.5Q37 13.3 37.8 13.3T39.3 13.5Q39.9 13.7 40.2 14.2T40.7 15.2L39.4 15.5Q39.3 15.1 38.9 14.8T37.9 14.5Q37.2 14.5 36.8 14.7T36.4 15.4Q36.4 15.8 36.7 16.1L37.6 16.4 38.8 16.7Q39.9 17 40.4 17.5T40.9 18.8Q40.9 19.5 40.5 20T39.4 20.9 37.8 21.2M41.7 13.4H45.8V14.6H41.7zM42.8 19.1V11.5H44.3V18.9Q44.3 19.4 44.5 19.6T45.1 19.8H45.4L45.8 19.7 46 20.9 45.5 21.1H45Q43.9 21.1 43.4 20.6T42.8 19.1M49.5 21.2Q48.7 21.2 48.1 20.9T47.2 20.1 46.9 18.8Q46.9 18.2 47.1 17.8L47.8 17.1 48.7 16.7 49.8 16.6 50.9 16.4 51.5 16.3 51.7 15.9V15.8L51.6 15.1 51.1 14.6 50.3 14.5 49.4 14.6 48.8 15 48.5 15.5 47.1 15.2Q47.4 14.5 47.8 14.1 48.3 13.6 49 13.5L50.2 13.3 51.2 13.4Q51.8 13.5 52.2 13.8T53 14.6Q53.2 15.1 53.2 15.9V21H51.8V20H51.7L51.3 20.5 50.5 21Q50.1 21.2 49.5 21.2M49.8 20Q50.4 20 50.8 19.7T51.5 19.1Q51.7 18.7 51.7 18.2V17.3L51.4 17.4 50.9 17.5 50.3 17.6 49.9 17.7 49.1 17.9 48.6 18.2Q48.3 18.5 48.3 18.9L48.5 19.5 49 19.8zM56.8 21H55.3V13.4H56.7V14.6H56.8Q57 14 57.5 13.6 58.1 13.2 58.7 13.2L59.1 13.3H59.4V14.7H59.1L58.6 14.6Q58.1 14.6 57.7 14.9T57 15.5Q56.8 15.9 56.8 16.4zM63.4 21.2Q62.6 21.2 61.9 20.9T60.9 20.2Q60.5 19.7 60.3 19.1L61.8 18.8Q61.9 19.4 62.3 19.7 62.8 19.9 63.4 19.9 64.2 19.9 64.6 19.6T65 18.9 64.8 18.3L63.9 17.9 62.7 17.7Q61.6 17.4 61.1 16.9T60.6 15.5Q60.6 14.9 60.9 14.3 61.3 13.8 62 13.5 62.6 13.3 63.5 13.3T64.9 13.5 65.9 14.2 66.4 15.2L65.1 15.5 64.6 14.8Q64.2 14.5 63.5 14.5 62.9 14.5 62.5 14.7T62.1 15.4Q62.1 15.8 62.4 16.1T63.3 16.4L64.5 16.7Q65.5 17 66.1 17.5 66.6 18 66.6 18.8 66.6 19.5 66.2 20T65.1 20.9 63.4 21.2"/></g><g><path fill="#fff" d="M78.1 21.1Q77.2 21.1 76.5 20.8 75.7 20.4 75.3 19.8 74.8 19.1 74.8 18.3H76.3Q76.3 18.8 76.6 19.1L77.3 19.6 78.1 19.8Q78.7 19.8 79.2 19.6 79.6 19.3 79.9 18.8T80.1 17.7Q80.1 17.1 79.9 16.6T79.1 15.9Q78.7 15.6 78.1 15.6T77.2 15.8Q76.7 15.9 76.4 16.2L75 16 75.5 10.8H81.2V12.1H76.8L76.5 15H76.6L77.4 14.5 78.4 14.3Q79.1 14.3 79.7 14.6T80.8 15.3 81.4 16.3Q81.7 17 81.7 17.7 81.7 18.7 81.2 19.5 80.8 20.2 80 20.7T78.1 21.1M86.6 21.1Q85.6 21.1 84.9 20.8 84.2 20.4 83.7 19.8T83.2 18.3H84.8Q84.8 18.8 85 19.1L85.7 19.6Q86.1 19.8 86.6 19.8T87.6 19.6Q88.1 19.3 88.3 18.8 88.6 18.3 88.6 17.7T88.3 16.6 87.6 15.9 86.5 15.6L85.6 15.8Q85.1 15.9 84.8 16.2L83.4 16 84 10.8H89.6V12.1H85.3L85 15 85.8 14.5Q86.3 14.3 86.9 14.3T88.2 14.6 89.2 15.3L89.9 16.3 90.1 17.7Q90.1 18.7 89.7 19.5 89.2 20.2 88.4 20.7T86.6 21.1M95.4 21.1 94 20.9Q93.4 20.7 92.8 20.1T92 18.6Q91.7 17.7 91.7 16.2 91.7 14.9 91.9 13.9T92.7 12.1Q93.2 11.4 93.9 11.1T95.5 10.7 97.1 11 98.3 12 98.8 13.5H97.3Q97.2 12.8 96.7 12.4T95.5 12 94.2 12.5 93.4 13.7Q93.2 14.6 93.2 15.7L93.9 15 94.7 14.5Q95.2 14.3 95.8 14.3 96.6 14.3 97.4 14.8 98.1 15.2 98.5 15.9T98.9 17.7Q98.9 18.6 98.5 19.4T97.3 20.7Q96.5 21.1 95.4 21.1M95.4 19.8Q96 19.8 96.4 19.5T97.1 18.8Q97.4 18.3 97.4 17.7T97.2 16.6 96.4 15.9Q96 15.6 95.4 15.6L94.6 15.8Q94.2 15.9 93.9 16.2L93.5 16.9 93.4 17.7Q93.4 18.3 93.6 18.8L94.3 19.5Q94.8 19.8 95.4 19.8"/></g></svg>