<svg xmlns="http://www.w3.org/2000/svg" width="800" height="400" viewBox="0 0 800 400" role="img" aria-label="jal-co/shieldcn">
  <defs><linearGradient id="chartFill0" x1="0" y1="0" x2="0" y2="1">
        <stop offset="0%" stop-color="rgba(139, 92, 246, 0.35)" />
        <stop offset="100%" stop-color="rgba(139, 92, 246, 0)" />
      </linearGradient></defs>
  
  <rect x="0.5" y="0.5" width="799" height="399" rx="12" fill="none" stroke="none" stroke-width="1" />
  <line x1="56" y1="364" x2="776" y2="364" stroke="#27272a" stroke-width="1"  /><text x="46" y="367.5" text-anchor="end" font-size="11" fill="#a1a1aa" font-family="'Inter', ui-sans-serif, system-ui, -apple-system, BlinkMacSystemFont, 'Segoe UI', Roboto, Helvetica, Arial, sans-serif">0</text><line x1="56" y1="289" x2="776" y2="289" stroke="#27272a" stroke-width="1" stroke-dasharray="3 3" /><text x="46" y="292.5" text-anchor="end" font-size="11" fill="#a1a1aa" font-family="'Inter', ui-sans-serif, system-ui, -apple-system, BlinkMacSystemFont, 'Segoe UI', Roboto, Helvetica, Arial, sans-serif">250</text><line x1="56" y1="214" x2="776" y2="214" stroke="#27272a" stroke-width="1" stroke-dasharray="3 3" /><text x="46" y="217.5" text-anchor="end" font-size="11" fill="#a1a1aa" font-family="'Inter', ui-sans-serif, system-ui, -apple-system, BlinkMacSystemFont, 'Segoe UI', Roboto, Helvetica, Arial, sans-serif">500</text><line x1="56" y1="139" x2="776" y2="139" stroke="#27272a" stroke-width="1" stroke-dasharray="3 3" /><text x="46" y="142.5" text-anchor="end" font-size="11" fill="#a1a1aa" font-family="'Inter', ui-sans-serif, system-ui, -apple-system, BlinkMacSystemFont, 'Segoe UI', Roboto, Helvetica, Arial, sans-serif">750</text><line x1="56" y1="64" x2="776" y2="64" stroke="#27272a" stroke-width="1" stroke-dasharray="3 3" /><text x="46" y="67.5" text-anchor="end" font-size="11" fill="#a1a1aa" font-family="'Inter', ui-sans-serif, system-ui, -apple-system, BlinkMacSystemFont, 'Segoe UI', Roboto, Helvetica, Arial, sans-serif">1k</text>
  <text x="56" y="386" text-anchor="start" font-size="11" fill="#a1a1aa" font-family="'Inter', ui-sans-serif, system-ui, -apple-system, BlinkMacSystemFont, 'Segoe UI', Roboto, Helvetica, Arial, sans-serif">Apr 26</text><text x="416" y="386" text-anchor="middle" font-size="11" fill="#a1a1aa" font-family="'Inter', ui-sans-serif, system-ui, -apple-system, BlinkMacSystemFont, 'Segoe UI', Roboto, Helvetica, Arial, sans-serif">May 26</text><text x="776" y="386" text-anchor="end" font-size="11" fill="#a1a1aa" font-family="'Inter', ui-sans-serif, system-ui, -apple-system, BlinkMacSystemFont, 'Segoe UI', Roboto, Helvetica, Arial, sans-serif">Jul 26</text>
  <path d="M56 363.7 L79.26 358 L97.55 352.3 L117.34 346.6 L151.52 340.9 L164.78 335.2 L196.86 329.5 L264.32 323.8 L367.64 317.8 L369.04 312.1 L371.68 306.4 L375.54 300.7 L379.78 295 L385.72 289.3 L397.23 283.6 L406.53 277.9 L418.44 272.2 L447.06 266.5 L495.73 260.8 L522.6 255.1 L578.7 249.4 L616.21 243.7 L650.89 237.7 L654.62 232 L660.77 226.3 L677.34 220.6 L703.58 214.9 L733.16 209.2 L762.43 203.5 L776 197.8 L776 364 L56 364 Z" fill="url(#chartFill0)" /><path d="M56 363.7 L79.26 358 L97.55 352.3 L117.34 346.6 L151.52 340.9 L164.78 335.2 L196.86 329.5 L264.32 323.8 L367.64 317.8 L369.04 312.1 L371.68 306.4 L375.54 300.7 L379.78 295 L385.72 289.3 L397.23 283.6 L406.53 277.9 L418.44 272.2 L447.06 266.5 L495.73 260.8 L522.6 255.1 L578.7 249.4 L616.21 243.7 L650.89 237.7 L654.62 232 L660.77 226.3 L677.34 220.6 L703.58 214.9 L733.16 209.2 L762.43 203.5 L776 197.8" fill="none" stroke="#8b5cf6" stroke-width="2" stroke-linejoin="round" stroke-linecap="round" /><circle cx="776" cy="197.8" r="3.5" fill="#8b5cf6" stroke="none" stroke-width="2" />
  
  
  <text x="56" y="30" font-size="16" font-weight="600" fill="#fafafa" font-family="'Inter', ui-sans-serif, system-ui, -apple-system, BlinkMacSystemFont, 'Segoe UI', Roboto, Helvetica, Arial, sans-serif">jal-co/shieldcn</text>
  <text x="56" y="48" font-size="12" fill="#a1a1aa" font-family="'Inter', ui-sans-serif, system-ui, -apple-system, BlinkMacSystemFont, 'Segoe UI', Roboto, Helvetica, Arial, sans-serif">554 stars</text>
  
</svg>