<svg xmlns="http://www.w3.org/2000/svg" width="800" height="400" viewBox="0 0 800 400" role="img" aria-label="jal-co/shieldcn">
  <defs><linearGradient id="chartFill0" x1="0" y1="0" x2="0" y2="1">
        <stop offset="0%" stop-color="rgba(63, 63, 70, 0.35)" />
        <stop offset="100%" stop-color="rgba(63, 63, 70, 0)" />
      </linearGradient></defs>
  
  <rect x="0.5" y="0.5" width="799" height="399" rx="12" fill="none" stroke="none" stroke-width="1" />
  <line x1="56" y1="364" x2="776" y2="364" stroke="#27272a" stroke-width="1"  /><text x="46" y="367.5" text-anchor="end" font-size="11" fill="#a1a1aa" font-family="'Inter', ui-sans-serif, system-ui, -apple-system, BlinkMacSystemFont, 'Segoe UI', Roboto, Helvetica, Arial, sans-serif">0</text><line x1="56" y1="289" x2="776" y2="289" stroke="#27272a" stroke-width="1" stroke-dasharray="3 3" /><text x="46" y="292.5" text-anchor="end" font-size="11" fill="#a1a1aa" font-family="'Inter', ui-sans-serif, system-ui, -apple-system, BlinkMacSystemFont, 'Segoe UI', Roboto, Helvetica, Arial, sans-serif">250</text><line x1="56" y1="214" x2="776" y2="214" stroke="#27272a" stroke-width="1" stroke-dasharray="3 3" /><text x="46" y="217.5" text-anchor="end" font-size="11" fill="#a1a1aa" font-family="'Inter', ui-sans-serif, system-ui, -apple-system, BlinkMacSystemFont, 'Segoe UI', Roboto, Helvetica, Arial, sans-serif">500</text><line x1="56" y1="139" x2="776" y2="139" stroke="#27272a" stroke-width="1" stroke-dasharray="3 3" /><text x="46" y="142.5" text-anchor="end" font-size="11" fill="#a1a1aa" font-family="'Inter', ui-sans-serif, system-ui, -apple-system, BlinkMacSystemFont, 'Segoe UI', Roboto, Helvetica, Arial, sans-serif">750</text><line x1="56" y1="64" x2="776" y2="64" stroke="#27272a" stroke-width="1" stroke-dasharray="3 3" /><text x="46" y="67.5" text-anchor="end" font-size="11" fill="#a1a1aa" font-family="'Inter', ui-sans-serif, system-ui, -apple-system, BlinkMacSystemFont, 'Segoe UI', Roboto, Helvetica, Arial, sans-serif">1k</text>
  <text x="56" y="386" text-anchor="start" font-size="11" fill="#a1a1aa" font-family="'Inter', ui-sans-serif, system-ui, -apple-system, BlinkMacSystemFont, 'Segoe UI', Roboto, Helvetica, Arial, sans-serif">Apr 26</text><text x="416" y="386" text-anchor="middle" font-size="11" fill="#a1a1aa" font-family="'Inter', ui-sans-serif, system-ui, -apple-system, BlinkMacSystemFont, 'Segoe UI', Roboto, Helvetica, Arial, sans-serif">May 26</text><text x="776" y="386" text-anchor="end" font-size="11" fill="#a1a1aa" font-family="'Inter', ui-sans-serif, system-ui, -apple-system, BlinkMacSystemFont, 'Segoe UI', Roboto, Helvetica, Arial, sans-serif">Jul 26</text>
  <path d="M56 363.7 L79.11 358 L97.28 352.3 L116.94 346.6 L150.9 340.9 L164.07 335.2 L195.95 329.5 L262.97 323.8 L365.62 317.8 L367.01 312.1 L369.64 306.4 L373.46 300.7 L377.67 295 L383.58 289.3 L395.02 283.6 L404.26 277.9 L416.08 272.2 L444.53 266.5 L492.87 260.8 L519.57 255.1 L575.31 249.4 L612.58 243.7 L647.03 237.7 L650.73 232 L656.84 226.3 L673.31 220.6 L699.38 214.9 L728.77 209.2 L757.85 203.5 L771.33 197.8 L776 196.9 L776 364 L56 364 Z" fill="url(#chartFill0)" /><path d="M56 363.7 L79.11 358 L97.28 352.3 L116.94 346.6 L150.9 340.9 L164.07 335.2 L195.95 329.5 L262.97 323.8 L365.62 317.8 L367.01 312.1 L369.64 306.4 L373.46 300.7 L377.67 295 L383.58 289.3 L395.02 283.6 L404.26 277.9 L416.08 272.2 L444.53 266.5 L492.87 260.8 L519.57 255.1 L575.31 249.4 L612.58 243.7 L647.03 237.7 L650.73 232 L656.84 226.3 L673.31 220.6 L699.38 214.9 L728.77 209.2 L757.85 203.5 L771.33 197.8 L776 196.9" fill="none" stroke="#3f3f46" stroke-width="2" stroke-linejoin="round" stroke-linecap="round" /><circle cx="776" cy="196.9" r="3.5" fill="#3f3f46" stroke="none" stroke-width="2" />
  
  
  <text x="56" y="30" font-size="16" font-weight="600" fill="#fafafa" font-family="'Inter', ui-sans-serif, system-ui, -apple-system, BlinkMacSystemFont, 'Segoe UI', Roboto, Helvetica, Arial, sans-serif">jal-co/shieldcn</text>
  <text x="56" y="48" font-size="12" fill="#a1a1aa" font-family="'Inter', ui-sans-serif, system-ui, -apple-system, BlinkMacSystemFont, 'Segoe UI', Roboto, Helvetica, Arial, sans-serif">557 stars</text>
  
</svg>