<svg xmlns="http://www.w3.org/2000/svg" width="750" height="260" viewBox="0 0 750 260" role="img" aria-label="acme — acme.dev">
  <defs>
    <clipPath id="headerClip"><rect x="0" y="0" width="750" height="260" rx="12" /></clipPath>
    <pattern id="hb4graphF" width="16" height="16" patternUnits="userSpaceOnUse"><path d="M16 0H0V16" fill="none" stroke="rgba(255, 255, 255, 0.04)" stroke-width="1" /></pattern><pattern id="hb4graphC" width="80" height="80" patternUnits="userSpaceOnUse"><path d="M80 0H0V80" fill="none" stroke="rgba(255, 255, 255, 0.06)" stroke-width="1" /></pattern>
  </defs>
  <g clip-path="url(#headerClip)">
    <rect x="0" y="0" width="750" height="260" fill="#09090b" /><rect x="0" y="0" width="750" height="260" fill="url(#hb4graphF)" /><rect x="0" y="0" width="750" height="260" fill="url(#hb4graphC)" />
    <g transform="translate(56, 51.99) scale(0.11)" fill="#848484"><path d="M148.02,363.76c-4.48,0-8.64-2.42-10.86-6.32l-54.29-95.68c-2.15-3.8-2.15-8.52,0-12.32l54.29-95.68c2.21-3.9,6.37-6.32,10.86-6.32h18.51c4.44,0,8.45,2.28,10.73,6.09,2.27,3.82,2.37,8.43.25,12.33l-42.23,77.99c-3.98,7.36-3.98,16.14,0,23.49l22.22,41.02c4.25,7.85,12.43,12.8,21.36,12.92,0,0,45.08.61,45.11.61,8.68,0,16.83-4.64,21.26-12.12l24.87-41.99c2.23-3.77,6.34-6.11,10.72-6.12l19.47-.04c4.48,0,8.49,2.29,10.76,6.12,2.27,3.83,2.35,8.45.21,12.35l-42.2,77.17c-2.19,4-6.39,6.49-10.95,6.49h-110.08Z" /><path d="M346.7,363.69c-4.44,0-8.45-2.28-10.73-6.09-2.27-3.82-2.37-8.43-.25-12.33l42.23-77.99c3.98-7.35,3.98-16.14,0-23.49l-22.22-41.02c-4.25-7.85-12.44-12.8-21.36-12.92,0,0-46.51-.63-46.53-.63-8.88,0-17.12,4.81-21.48,12.54l-23.35,41.36c-2.2,3.9-6.36,6.34-10.84,6.35l-19.21.04c-4.48,0-8.49-2.29-10.76-6.12-2.27-3.83-2.35-8.45-.22-12.36l42.2-77.17c2.19-4.01,6.39-6.5,10.95-6.5h110.08c4.48,0,8.64,2.42,10.86,6.32l54.29,95.68c2.16,3.8,2.16,8.52,0,12.32l-54.29,95.68c-2.21,3.9-6.37,6.32-10.86,6.32h-18.51Z" /></g>
    <text x="56" y="163.05" text-anchor="start" font-size="40" font-weight="700" fill="#fafafa" font-family="'Geist Mono', ui-monospace, SFMono-Regular, 'SF Mono', Menlo, Consolas, 'Liberation Mono', monospace" letter-spacing="-0.02em">acme</text>
    <text x="56" y="200.19" text-anchor="start" font-size="17" font-weight="400" fill="rgba(250,250,250,0.74)" font-family="'Geist Mono', ui-monospace, SFMono-Regular, 'SF Mono', Menlo, Consolas, 'Liberation Mono', monospace">acme.dev</text>
  </g>
  
  
</svg>