<svg xmlns="http://www.w3.org/2000/svg" width="800" height="400" viewBox="0 0 800 400" role="img" aria-label="jal-co/shieldcn">
  <defs><linearGradient id="chartFill0" x1="0" y1="0" x2="0" y2="1">
        <stop offset="0%" stop-color="rgba(63, 63, 70, 0.35)" />
        <stop offset="100%" stop-color="rgba(63, 63, 70, 0)" />
      </linearGradient></defs>
  
  <rect x="0.5" y="0.5" width="799" height="399" rx="12" fill="none" stroke="none" stroke-width="1" />
  <line x1="56" y1="364" x2="776" y2="364" stroke="#27272a" stroke-width="1"  /><text x="46" y="367.5" text-anchor="end" font-size="11" fill="#a1a1aa" font-family="'Inter', ui-sans-serif, system-ui, -apple-system, BlinkMacSystemFont, 'Segoe UI', Roboto, Helvetica, Arial, sans-serif">0</text><line x1="56" y1="289" x2="776" y2="289" stroke="#27272a" stroke-width="1" stroke-dasharray="3 3" /><text x="46" y="292.5" text-anchor="end" font-size="11" fill="#a1a1aa" font-family="'Inter', ui-sans-serif, system-ui, -apple-system, BlinkMacSystemFont, 'Segoe UI', Roboto, Helvetica, Arial, sans-serif">250</text><line x1="56" y1="214" x2="776" y2="214" stroke="#27272a" stroke-width="1" stroke-dasharray="3 3" /><text x="46" y="217.5" text-anchor="end" font-size="11" fill="#a1a1aa" font-family="'Inter', ui-sans-serif, system-ui, -apple-system, BlinkMacSystemFont, 'Segoe UI', Roboto, Helvetica, Arial, sans-serif">500</text><line x1="56" y1="139" x2="776" y2="139" stroke="#27272a" stroke-width="1" stroke-dasharray="3 3" /><text x="46" y="142.5" text-anchor="end" font-size="11" fill="#a1a1aa" font-family="'Inter', ui-sans-serif, system-ui, -apple-system, BlinkMacSystemFont, 'Segoe UI', Roboto, Helvetica, Arial, sans-serif">750</text><line x1="56" y1="64" x2="776" y2="64" stroke="#27272a" stroke-width="1" stroke-dasharray="3 3" /><text x="46" y="67.5" text-anchor="end" font-size="11" fill="#a1a1aa" font-family="'Inter', ui-sans-serif, system-ui, -apple-system, BlinkMacSystemFont, 'Segoe UI', Roboto, Helvetica, Arial, sans-serif">1k</text>
  <text x="56" y="386" text-anchor="start" font-size="11" fill="#a1a1aa" font-family="'Inter', ui-sans-serif, system-ui, -apple-system, BlinkMacSystemFont, 'Segoe UI', Roboto, Helvetica, Arial, sans-serif">Apr 26</text><text x="416" y="386" text-anchor="middle" font-size="11" fill="#a1a1aa" font-family="'Inter', ui-sans-serif, system-ui, -apple-system, BlinkMacSystemFont, 'Segoe UI', Roboto, Helvetica, Arial, sans-serif">May 26</text><text x="776" y="386" text-anchor="end" font-size="11" fill="#a1a1aa" font-family="'Inter', ui-sans-serif, system-ui, -apple-system, BlinkMacSystemFont, 'Segoe UI', Roboto, Helvetica, Arial, sans-serif">Jul 26</text>
  <path d="M56 363.7 L80.27 358.3 L99.44 352.9 L114.54 347.5 L147.66 342.1 L167.03 336.7 L180.39 331.3 L236.69 325.9 L376.96 320.5 L382.92 315.1 L385.04 309.7 L389.11 304.3 L391.4 298.9 L395.74 293.5 L403.81 288.1 L414.33 282.4 L424.21 277 L436.1 271.6 L469.13 266.2 L516.73 260.8 L543.28 255.4 L593.27 250 L631.96 244.6 L677.32 239.2 L682.71 233.8 L686.58 228.4 L698.4 223 L723.69 217.6 L754.06 212.2 L776 206.8 L776 364 L56 364 Z" fill="url(#chartFill0)" /><path d="M56 363.7 L80.27 358.3 L99.44 352.9 L114.54 347.5 L147.66 342.1 L167.03 336.7 L180.39 331.3 L236.69 325.9 L376.96 320.5 L382.92 315.1 L385.04 309.7 L389.11 304.3 L391.4 298.9 L395.74 293.5 L403.81 288.1 L414.33 282.4 L424.21 277 L436.1 271.6 L469.13 266.2 L516.73 260.8 L543.28 255.4 L593.27 250 L631.96 244.6 L677.32 239.2 L682.71 233.8 L686.58 228.4 L698.4 223 L723.69 217.6 L754.06 212.2 L776 206.8" fill="none" stroke="#3f3f46" stroke-width="2" stroke-linejoin="round" stroke-linecap="round" /><circle cx="776" cy="206.8" r="3.5" fill="#3f3f46" stroke="none" stroke-width="2" />
  
  
  <text x="56" y="30" font-size="16" font-weight="600" fill="#fafafa" font-family="'Inter', ui-sans-serif, system-ui, -apple-system, BlinkMacSystemFont, 'Segoe UI', Roboto, Helvetica, Arial, sans-serif">jal-co/shieldcn</text>
  <text x="56" y="48" font-size="12" fill="#a1a1aa" font-family="'Inter', ui-sans-serif, system-ui, -apple-system, BlinkMacSystemFont, 'Segoe UI', Roboto, Helvetica, Arial, sans-serif">524 stars</text>
  
</svg>