<svg xmlns="http://www.w3.org/2000/svg" width="217" height="32" viewBox="0 0 217 32"><path fill="#fafafa" d="M6 0H211A6 6 0 0 1 217 6V26A6 6 0 0 1 211 32H6A6 6 0 0 1 0 26V6A6 6 0 0 1 6 0"/><g><path fill="#18181b" fill-opacity=".85" d="M1.8 0Q.2.2 0 1.8V22.2Q.2 23.8 1.8 24H22.2Q23.8 23.8 24 22.2V1.8Q23.8.2 22.2 0zM5 5.3H19V19.2H15.5V8.8H12V19.2H5.1z" transform="translate(12 8)scale(.66667)"/></g><g><path fill="#18181b" fill-opacity=".7" d="M37.9 21.2Q36.9 21.2 36.2 20.7T35.1 19.3 34.7 17.2 35.1 15.1 36.2 13.7Q36.9 13.3 37.9 13.3 38.6 13.3 39 13.5L39.7 14 40.1 14.6V10.8H41.6V21H40.2V19.8H40.1L39.7 20.4 39 20.9Q38.5 21.2 37.9 21.2M38.2 19.9Q38.8 19.9 39.3 19.5 39.7 19.2 39.9 18.6 40.2 18 40.2 17.2T39.9 15.8Q39.7 15.2 39.3 14.9 38.8 14.5 38.2 14.5T37.1 14.9 36.4 15.8Q36.2 16.4 36.2 17.2L36.4 18.6Q36.6 19.2 37.1 19.5T38.2 19.9M46.9 21.2Q45.8 21.2 45 20.7T43.8 19.3 43.3 17.2 43.8 15.1Q44.2 14.2 45 13.8T46.9 13.3Q48 13.3 48.8 13.8T50 15.1Q50.5 16 50.5 17.2T50 19.3Q49.6 20.2 48.8 20.7T46.9 21.2M46.9 19.9Q47.6 19.9 48 19.5 48.5 19.2 48.7 18.5T48.9 17.2 48.7 15.9 48 14.9Q47.6 14.5 46.9 14.5T45.7 14.9 45.1 15.9Q44.8 16.5 44.8 17.2T45.1 18.5Q45.3 19.2 45.7 19.5 46.2 19.9 46.9 19.9M55.3 21H53.8L51.5 13.4H53.1L53.9 16.5 54.3 18.1 54.7 20.1H54.5L54.9 18.1 55.3 16.5 56.2 13.4H57.7L58.5 16.5 58.9 18.1 59.3 20.1H59.1L59.5 18.1 59.9 16.5 60.7 13.4H62.3L60 21H58.5L57.6 17.7 57.3 16.7 57 15.6 56.8 14.4H57.1L56.8 15.6 56.5 16.7 56.3 17.7zM65.2 16.5V21H63.7V13.4H65.2V15.2H65Q65.4 14.2 66 13.7T67.5 13.3Q68.3 13.3 68.9 13.6T69.8 14.6Q70.1 15.2 70.1 16.1V21H68.6V16.3Q68.6 15.5 68.2 15T67 14.6Q66.5 14.6 66.1 14.8T65.5 15.4Q65.2 15.9 65.2 16.5M72.2 10.8H73.7V21H72.2zM78.9 21.2Q77.8 21.2 77 20.7T75.8 19.3Q75.3 18.4 75.3 17.2T75.8 15.1 77 13.8 78.9 13.3Q80 13.3 80.8 13.8T82 15.1Q82.5 16 82.5 17.2T82 19.3 80.8 20.7 78.9 21.2M78.9 19.9Q79.6 19.9 80 19.5 80.5 19.2 80.7 18.5T80.9 17.2 80.7 15.9 80 14.9 78.9 14.5Q78.2 14.5 77.8 14.9T77.1 15.9 76.9 17.2Q76.9 17.9 77.1 18.5T77.8 19.5Q78.2 19.9 78.9 19.9M86.3 21.2Q85.5 21.2 85 20.9T84 20.1Q83.7 19.6 83.7 18.8 83.7 18.2 83.9 17.8L84.6 17.1 85.6 16.7 86.6 16.6 87.7 16.4 88.4 16.3 88.6 15.9V15.8Q88.6 15.4 88.4 15.1L87.9 14.6 87.1 14.5 86.2 14.6 85.7 15 85.3 15.5 83.9 15.2Q84.2 14.5 84.7 14.1T85.8 13.5 87.1 13.3L88.1 13.4Q88.6 13.5 89 13.8T89.8 14.6 90.1 15.9V21H88.6V20H88.5L88.1 20.5 87.3 21Q86.9 21.2 86.3 21.2M86.6 20Q87.2 20 87.7 19.7 88.1 19.5 88.3 19.1 88.6 18.7 88.6 18.2V17.3L88.3 17.4 87.7 17.5 87.2 17.6 86.7 17.7 85.9 17.9 85.4 18.2Q85.2 18.5 85.2 18.9L85.4 19.5Q85.5 19.7 85.9 19.8 86.2 20 86.6 20M94.9 21.2Q94 21.2 93.3 20.7T92.1 19.3 91.7 17.2Q91.7 16 92.1 15.1T93.3 13.7Q94 13.3 94.9 13.3 95.6 13.3 96.1 13.5L96.8 14 97.1 14.6H97.2V10.8H98.7V21H97.3V19.8H97.1L96.7 20.4Q96.5 20.7 96.1 20.9 95.6 21.2 94.9 21.2M95.3 19.9Q95.9 19.9 96.3 19.5 96.8 19.2 97 18.6T97.2 17.2 97 15.8 96.3 14.9 95.3 14.5Q94.6 14.5 94.2 14.9 93.7 15.2 93.5 15.8T93.3 17.2L93.5 18.6Q93.7 19.2 94.2 19.5T95.3 19.9M103.5 21.2Q102.7 21.2 102 20.9T100.9 20.2Q100.5 19.7 100.4 19.1L101.8 18.8Q102 19.4 102.4 19.7 102.8 19.9 103.5 19.9T104.6 19.6 105.1 18.9 104.8 18.3L104 17.9 102.7 17.7Q101.7 17.4 101.1 16.9 100.6 16.4 100.6 15.5 100.6 14.9 101 14.3T102 13.5Q102.7 13.3 103.6 13.3 104.4 13.3 105 13.5T105.9 14.2Q106.3 14.6 106.5 15.2L105.1 15.5Q105 15.1 104.6 14.8 104.3 14.5 103.6 14.5T102.6 14.7Q102.1 15 102.1 15.4T102.4 16.1L103.3 16.4 104.5 16.7Q105.6 17 106.1 17.5T106.6 18.8Q106.6 19.5 106.2 20T105.1 20.9 103.5 21.2"/></g><g><path fill="#18181b" d="M116.9 10.8H118.7V21H117.1V12.2L114.6 14V12.4zM128.2 19H120.6V17.8L125 10.8H126V12.7H125.3L122.2 17.6V17.7H128.2zM126.9 21H125.4V10.8H126.9zM133.5 21.1Q132.8 21.1 132.2 20.9T130.9 20.1Q130.4 19.5 130.1 18.6T129.8 16.2Q129.8 14.9 130 13.9T130.8 12.1Q131.3 11.4 132 11.1T133.6 10.7 135.2 11Q136 11.4 136.4 12T137 13.5H135.4Q135.3 12.8 134.8 12.4T133.6 12 132.4 12.5Q131.8 12.9 131.6 13.7 131.3 14.6 131.3 15.7L132 15 132.9 14.5Q133.3 14.3 133.9 14.3 134.8 14.3 135.5 14.8T136.6 15.9Q137.1 16.7 137.1 17.7T136.6 19.4Q136.2 20.2 135.4 20.7T133.5 21.1M133.5 19.8Q134.1 19.8 134.5 19.5T135.3 18.8Q135.5 18.3 135.5 17.7T135.3 16.6L134.6 15.9Q134.1 15.6 133.5 15.6L132.7 15.8Q132.3 15.9 132.1 16.2L131.6 16.9 131.5 17.7Q131.5 18.3 131.7 18.8 132 19.2 132.5 19.5T133.5 19.8M139.5 21.1Q139.1 21.1 138.8 20.8T138.5 20.1 138.8 19.4 139.5 19.1 140.2 19.4 140.5 20.1 140.2 20.8 139.5 21.1M149.3 21H142.6V19.9L146.1 16.3 146.9 15.3 147.5 14.5Q147.7 14.1 147.7 13.6T147.4 12.7 146.8 12.2 145.9 12 144.9 12.2 144.3 12.8 144.1 13.8H142.6Q142.6 12.9 143 12.2T144.2 11.1 145.9 10.7 147.6 11.1Q148.3 11.4 148.7 12.1T149.2 13.6L149 14.7 148.2 15.9 146.8 17.5 144.8 19.6V19.7H149.3zM152.8 21H151.2V13.4H152.7V15.1H152.6L153.1 14.1Q153.5 13.6 153.9 13.4L154.9 13.2Q155.7 13.2 156.2 13.7T156.9 15.2H156.7L157.2 14.1Q157.6 13.7 158.1 13.5 158.6 13.2 159.2 13.2T160.5 13.5Q161 13.8 161.3 14.4T161.7 15.8V21H160.2V16Q160.2 15.2 159.7 14.9T158.7 14.5Q158.2 14.5 157.9 14.7T157.4 15.3Q157.2 15.6 157.2 16.1V21H155.7V15.9Q155.7 15.3 155.3 14.9T154.3 14.5L153.5 14.7Q153.2 14.9 153 15.3T152.8 16.2zM166.2 10.3H167.6L164.3 22.5H162.9zM172 21H170.5L168.2 13.4H169.8L170.7 16.5 171.1 18.1 171.5 20.1H171.3Q171.4 19 171.7 18.1L172.1 16.5 172.9 13.4H174.4L175.2 16.5 175.6 18.1 176 20.1H175.8L176.2 18.1 176.6 16.5 177.5 13.4H179.1L176.8 21H175.3L174.3 17.7 174 16.7 173.8 15.6 173.5 14.4H173.8L173.5 15.6 173.3 16.7 173 17.7zM183.8 21.2Q182.6 21.2 181.8 20.7T180.6 19.3 180.1 17.2Q180.1 16.1 180.5 15.2T181.8 13.8 183.6 13.3Q184.3 13.3 184.9 13.5T186 14.2 186.8 15.3Q187 16.1 187 17.1V17.6H181V16.5H186.3L185.6 16.9Q185.6 16.2 185.3 15.6 185.1 15.1 184.7 14.8T183.6 14.5 182.5 14.8 181.9 15.6Q181.6 16.1 181.6 16.7V17.5Q181.6 18.3 181.9 18.8T182.6 19.6Q183.1 19.9 183.8 19.9L184.5 19.8Q184.9 19.7 185.1 19.4 185.4 19.2 185.5 18.8L186.9 19.2Q186.7 19.8 186.3 20.2T185.2 20.9Q184.6 21.2 183.8 21.2M192 21.2Q190.9 21.2 190 20.7T188.8 19.3Q188.3 18.4 188.3 17.2 188.3 16.1 188.8 15.2T190 13.8Q190.8 13.3 191.9 13.3L193.1 13.5Q193.7 13.7 194.2 14.2T195 15.3Q195.3 16.1 195.3 17.1V17.6H189.2V16.5H194.5L193.8 16.9Q193.8 16.2 193.6 15.6 193.4 15.1 192.9 14.8T191.9 14.5Q191.2 14.5 190.8 14.8T190.1 15.6 189.8 16.7V17.5Q189.8 18.3 190.1 18.8T190.9 19.6 192 19.9L192.8 19.8 193.4 19.4 193.7 18.8 195.1 19.2Q195 19.8 194.5 20.2T193.5 20.9Q192.8 21.2 192 21.2M199.7 17.1 198.3 18.4V16.6H198.6L201.6 13.4H203.4L199.9 17.1zM198.4 21H196.9V10.8H198.4zM203.6 21H201.7L199 17.4 200.1 16.3z"/></g></svg>