<svg xmlns="http://www.w3.org/2000/svg" width="168" height="32" viewBox="0 0 168 32"><path fill="#fafafa" d="M6 0H162A6 6 0 0 1 168 6V26A6 6 0 0 1 162 32H6A6 6 0 0 1 0 26V6A6 6 0 0 1 6 0"/><g><path fill="#18181b" fill-opacity=".85" d="M17 11H21.1A.8.8 0 0 1 21.3 12.5H17A5 5 0 0 1 7.1 12.5H2.8A.8.8 0 0 1 2.8 11H7A5 5 0 0 1 16.9 11M15.4 11.8A3.5 3.5 0 1 0 8.5 11.8 3.5 3.5 0 0 0 15.5 11.8" transform="translate(12 8)scale(.66667)"/></g><g><path fill="#18181b" fill-opacity=".7" d="M35 10.8H36.5V21H35zM40.7 21.2Q40 21.2 39.4 20.9T38.4 20.1Q38.1 19.6 38.1 18.8 38.1 18.2 38.3 17.8L39 17.1 40 16.7 41 16.6 42.1 16.4 42.8 16.3 43 15.9V15.8Q43 15.4 42.8 15.1L42.3 14.6 41.5 14.5 40.6 14.6 40.1 15 39.7 15.5 38.3 15.2Q38.6 14.5 39.1 14.1T40.2 13.5 41.5 13.3L42.5 13.4Q43 13.5 43.4 13.8T44.2 14.6Q44.5 15.1 44.5 15.9V21H43V20H42.9L42.5 20.5 41.7 21Q41.3 21.2 40.7 21.2M41 20Q41.6 20 42.1 19.7 42.5 19.5 42.7 19.1 43 18.7 43 18.2V17.3L42.7 17.4 42.1 17.5 41.6 17.6 41.1 17.7 40.3 17.9 39.8 18.2Q39.6 18.5 39.6 18.9L39.8 19.5Q39.9 19.7 40.3 19.8 40.6 20 41 20M49.2 21.2Q48.4 21.2 47.8 20.9 47.1 20.7 46.7 20.2T46.1 19.1L47.6 18.8Q47.7 19.4 48.2 19.7 48.6 19.9 49.2 19.9 50 19.9 50.4 19.6T50.8 18.9 50.6 18.3L49.8 17.9 48.5 17.7Q47.4 17.4 46.9 16.9T46.4 15.5Q46.4 14.9 46.7 14.3 47.1 13.8 47.8 13.5 48.5 13.3 49.3 13.3T50.7 13.5 51.7 14.2 52.2 15.2L50.9 15.5 50.4 14.8Q50 14.5 49.3 14.5 48.7 14.5 48.3 14.7T47.9 15.4Q47.9 15.8 48.2 16.1T49.1 16.4L50.3 16.7Q51.4 17 51.9 17.5T52.4 18.8Q52.4 19.5 52 20T50.9 20.9 49.2 21.2M53.2 13.4H57.3V14.6H53.2zM54.3 19.1V11.5H55.8V18.9Q55.8 19.4 56 19.6T56.6 19.8H56.9L57.2 19.7 57.5 20.9 57 21.1H56.5Q55.4 21.1 54.8 20.6T54.3 19.1M65.7 21.2Q64.7 21.2 63.9 20.7T62.6 19.3 62.2 17.2 62.6 15.1Q63.1 14.2 63.9 13.8T65.7 13.3L66.9 13.4 67.8 13.9 68.5 14.6Q68.8 15 68.9 15.5L67.5 15.9 67.3 15.3 66.9 14.9 66.4 14.6 65.7 14.5Q65.1 14.5 64.6 14.9T63.9 15.9 63.7 17.2Q63.7 18 63.9 18.6T64.6 19.5Q65.1 19.9 65.7 19.9L66.4 19.8 66.9 19.5 67.3 19.1 67.5 18.5 69 18.8 68.5 19.8 67.8 20.5 66.9 21zM73.8 21.2Q72.7 21.2 71.9 20.7T70.7 19.3 70.3 17.2 70.7 15.1 71.9 13.8 73.8 13.3 75.7 13.8Q76.5 14.2 77 15.1T77.4 17.2 77 19.3Q76.5 20.2 75.7 20.7T73.8 21.2M73.8 19.9Q74.5 19.9 75 19.5 75.4 19.2 75.6 18.5 75.9 17.9 75.9 17.2T75.6 15.9Q75.4 15.3 75 14.9 74.5 14.5 73.8 14.5T72.7 14.9Q72.2 15.3 72 15.9T71.8 17.2 72 18.5 72.7 19.5 73.8 19.9M80.6 21H79.1V13.4H80.5V15.1H80.4L80.9 14.1Q81.3 13.6 81.7 13.4L82.7 13.2Q83.5 13.2 84 13.7T84.7 15.2H84.5L85 14.1Q85.4 13.7 85.9 13.5 86.5 13.2 87.1 13.2T88.3 13.5Q88.8 13.8 89.2 14.4 89.5 15 89.5 15.8V21H88V16Q88 15.2 87.5 14.9T86.5 14.5L85.7 14.7Q85.4 14.9 85.2 15.3T85 16.1V21H83.5V15.9Q83.5 15.3 83.1 14.9T82.1 14.5Q81.7 14.5 81.4 14.7 81 14.9 80.8 15.3T80.6 16.2zM93 21H91.5V13.4H92.9L93 15.1H92.9Q93 14.5 93.4 14.1 93.7 13.6 94.2 13.4T95.1 13.2Q95.9 13.2 96.5 13.7T97.2 15.2H97Q97.1 14.6 97.5 14.1 97.8 13.7 98.4 13.5 98.9 13.2 99.5 13.2T100.7 13.5 101.6 14.4 101.9 15.8V21H100.4V16Q100.4 15.2 100 14.9T99 14.5Q98.5 14.5 98.2 14.7T97.6 15.3Q97.4 15.6 97.4 16.1V21H96V15.9Q96 15.3 95.6 14.9T94.6 14.5 93.8 14.7Q93.4 14.9 93.2 15.3T93 16.2zM105.4 21H103.9V13.4H105.4zM104.7 12.2Q104.3 12.2 104 11.9T103.7 11.3 104 10.7 104.7 10.4 105.4 10.7 105.6 11.3Q105.6 11.7 105.4 11.9 105.1 12.2 104.7 12.2M106.6 13.4H110.7V14.6H106.6zM107.7 19.1V11.5H109.2V18.9Q109.2 19.4 109.4 19.6T110 19.8H110.3L110.7 19.7 110.9 20.9 110.4 21.1H109.9Q108.8 21.1 108.3 20.6T107.7 19.1"/></g><g><path fill="#18181b" d="M118.1 13.4H122.3V14.6H118.1zM119.3 19.1V11.5H120.8V18.9L120.9 19.6Q121.1 19.8 121.6 19.8H121.9L122.2 19.7 122.5 20.9 122 21.1H121.4Q120.4 21.1 119.8 20.6 119.3 20 119.3 19.1M127 21.2Q125.9 21.2 125.1 20.7T123.9 19.3Q123.4 18.4 123.4 17.2T123.9 15.1 125.1 13.8Q125.9 13.3 127 13.3T128.9 13.8 130.1 15.1Q130.6 16 130.6 17.2T130.1 19.3 128.9 20.7Q128.1 21.2 127 21.2M127 19.9Q127.7 19.9 128.1 19.5 128.6 19.2 128.8 18.5T129 17.2 128.8 15.9 128.1 14.9Q127.7 14.5 127 14.5T125.8 14.9Q125.4 15.3 125.2 15.9T125 17.2 125.2 18.5 125.8 19.5Q126.3 19.9 127 19.9M135.1 21.2Q134.1 21.2 133.4 20.7T132.3 19.3 131.9 17.2 132.3 15.1 133.4 13.7Q134.2 13.3 135.1 13.3 135.8 13.3 136.2 13.5T136.9 14L137.3 14.6H137.4V10.8H138.9V21H137.4V19.8H137.3L136.9 20.4 136.2 20.9Q135.8 21.2 135.1 21.2M135.4 19.9Q136 19.9 136.5 19.5 136.9 19.2 137.2 18.6T137.4 17.2 137.2 15.8Q136.9 15.2 136.5 14.9T135.4 14.5 134.3 14.9Q133.9 15.2 133.6 15.8T133.4 17.2L133.6 18.6Q133.9 19.2 134.3 19.5 134.8 19.9 135.4 19.9M143 21.2Q142.3 21.2 141.7 20.9T140.8 20.1Q140.4 19.6 140.4 18.8 140.4 18.2 140.7 17.8T141.4 17.1L142.3 16.7 143.4 16.6 144.5 16.4 145.1 16.3 145.3 15.9V15.8Q145.3 15.4 145.1 15.1 145 14.8 144.7 14.6L143.8 14.5 143 14.6 142.4 15 142.1 15.5 140.7 15.2Q140.9 14.5 141.4 14.1T142.5 13.5 143.8 13.3L144.8 13.4 145.8 13.8Q146.2 14.1 146.5 14.6T146.8 15.9V21H145.4V20H145.3L144.8 20.5 144.1 21Q143.6 21.2 143 21.2M143.4 20Q144 20 144.4 19.7T145.1 19.1Q145.3 18.7 145.3 18.2V17.3L145 17.4 144.5 17.5 143.9 17.6 143.5 17.7Q143 17.7 142.7 17.9L142.1 18.2Q141.9 18.5 141.9 18.9L142.1 19.5 142.6 19.8Q142.9 20 143.4 20M148.7 23.7 149.1 22.5 149.3 22.6H150Q150.3 22.6 150.5 22.3L150.9 21.6 151 21 148.1 13.4H149.8L151.3 17.7 151.7 19.1 152.1 20.6H151.6L152 19.1 152.4 17.7 154 13.4H155.6L152.2 22.1 151.7 23.1 150.9 23.7Q150.4 23.9 149.8 23.9H149.2z"/></g></svg>