<svg xmlns="http://www.w3.org/2000/svg" width="130" height="32" viewBox="0 0 130 32"><path fill="#fafafa" d="M6 0H124A6 6 0 0 1 130 6V26A6 6 0 0 1 124 32H6A6 6 0 0 1 0 26V6A6 6 0 0 1 6 0"/><g><path fill="#18181b" fill-opacity=".85" d="M256 336C256 319.8 257.3 327.3 171 154.5A48 48 0 0 0 85 154.5C-2 328.8 0 320.3 0 336 0 380.2 57.3 416 128 416S256 380.2 256 336M128 176 200 320H56zM640 336C640 319.8 641.3 327.3 555 154.5A48 48 0 0 0 469 154.5C382 328.8 384 320.3 384 336 384 380.2 441.3 416 512 416S640 380.2 640 336M440 320 512 176 584 320zM528 448H352V153.3A80 80 0 0 0 398.4 96H528A16 16 0 0 0 544 80V48A16 16 0 0 0 528 32H383.6C369 12.7 346.1 0 320 0S271 12.7 256.4 32H112A16 16 0 0 0 96 48V80A16 16 0 0 0 112 96H241.6A80 80 0 0 0 288 153.3V448H112A16 16 0 0 0 96 464V496A16 16 0 0 0 112 512H528A16 16 0 0 0 544 496V464A16 16 0 0 0 528 448" transform="translate(12 8)scale(.03125)"/></g><g><path fill="#18181b" fill-opacity=".7" d="M39 10.8H40.5V21H39zM44 21H42.5V13.4H44zM43.3 12.2Q42.9 12.2 42.6 11.9T42.4 11.3 42.6 10.7Q42.9 10.4 43.3 10.4T44 10.7Q44.2 10.9 44.2 11.3T44 11.9Q43.7 12.2 43.3 12.2M49.3 21.2Q48.2 21.2 47.4 20.7T46.2 19.3Q45.7 18.4 45.7 17.2T46.2 15.1Q46.6 14.2 47.4 13.8T49.3 13.3L50.4 13.4 51.3 13.9Q51.8 14.2 52 14.6L52.5 15.5 51 15.9 50.8 15.3 50.4 14.9 49.9 14.6 49.3 14.5Q48.6 14.5 48.1 14.9T47.5 15.9Q47.2 16.5 47.2 17.2T47.5 18.6Q47.7 19.2 48.1 19.5 48.6 19.9 49.3 19.9L49.9 19.8 50.5 19.5 50.9 19.1 51.1 18.5 52.5 18.8Q52.4 19.4 52.1 19.8L51.4 20.5 50.4 21Q49.9 21.2 49.3 21.2M57.4 21.2Q56.3 21.2 55.5 20.7T54.2 19.3Q53.8 18.4 53.8 17.2 53.8 16.1 54.2 15.2T55.5 13.8Q56.2 13.3 57.3 13.3 58 13.3 58.6 13.5T59.7 14.2 60.4 15.3Q60.7 16.1 60.7 17.1V17.6H54.6V16.5H60L59.2 16.9Q59.2 16.2 59 15.6 58.8 15.1 58.4 14.8T57.3 14.5Q56.7 14.5 56.2 14.8 55.8 15.1 55.5 15.6T55.3 16.7V17.5Q55.3 18.3 55.6 18.8T56.3 19.6Q56.8 19.9 57.5 19.9L58.2 19.8Q58.6 19.7 58.8 19.4 59.1 19.2 59.2 18.8L60.6 19.2Q60.4 19.8 60 20.2T58.9 20.9Q58.3 21.2 57.4 21.2M63.9 16.5V21H62.4V13.4H63.8V15.2H63.7Q64 14.2 64.6 13.7T66.2 13.3Q67 13.3 67.5 13.6T68.4 14.6Q68.8 15.2 68.8 16.1V21H67.3V16.3Q67.3 15.5 66.8 15T65.7 14.6 64.7 14.8 64.1 15.4 63.9 16.5M73.5 21.2Q72.7 21.2 72.1 20.9 71.4 20.7 71 20.2T70.5 19.1L71.9 18.8Q72 19.4 72.5 19.7 72.9 19.9 73.5 19.9 74.3 19.9 74.7 19.6T75.1 18.9 74.9 18.3L74.1 17.9 72.8 17.7Q71.7 17.4 71.2 16.9T70.7 15.5Q70.7 14.9 71.1 14.3 71.4 13.8 72.1 13.5 72.8 13.3 73.6 13.3T75 13.5 76 14.2 76.5 15.2L75.2 15.5 74.7 14.8Q74.3 14.5 73.6 14.5 73 14.5 72.6 14.7T72.2 15.4Q72.2 15.8 72.5 16.1T73.4 16.4L74.6 16.7Q75.7 17 76.2 17.5T76.7 18.8Q76.7 19.5 76.3 20T75.2 20.9 73.5 21.2M81.6 21.2Q80.5 21.2 79.7 20.7T78.4 19.3 78 17.2Q78 16.1 78.4 15.2T79.6 13.8 81.5 13.3Q82.2 13.3 82.8 13.5T83.9 14.2Q84.3 14.6 84.6 15.3T84.9 17.1V17.6H78.8V16.5H84.1L83.4 16.9Q83.4 16.2 83.2 15.6 83 15.1 82.6 14.8 82.1 14.5 81.5 14.5T80.4 14.8 79.7 15.6 79.5 16.7V17.5Q79.5 18.3 79.8 18.8T80.5 19.6 81.6 19.9L82.4 19.8 83 19.4 83.4 18.8 84.8 19.2Q84.6 19.8 84.2 20.2 83.7 20.7 83.1 20.9 82.4 21.2 81.6 21.2"/></g><g><path fill="#18181b" d="M94.6 21H93.1V10.8H95.4L97.6 16.7 97.9 17.3 98.1 18.2 98.4 19.1 98.6 19.9H98.2L98.4 19.1 98.7 18.2 98.9 17.3 99.2 16.7 101.3 10.8H103.7V21H102.1V12.9L102.2 11.9H102.3L102 12.9 101.7 13.9 101.4 14.8 101.1 15.5 99.1 21H97.7L95.6 15.5 95.4 14.9 95.1 14 94.8 13 94.4 11.9H94.6zM105.9 10.8H107.5V21H105.9zM112.4 12.2H109.2V10.8H117.1V12.2H114V21H112.4z"/></g></svg>