<svg xmlns="http://www.w3.org/2000/svg" width="103" height="24" viewBox="0 0 103 24"><path fill="#fafafa" d="M6 0H97A6 6 0 0 1 103 6V18A6 6 0 0 1 97 24H6A6 6 0 0 1 0 18V6A6 6 0 0 1 6 0"/><g><path fill="#18181b" fill-opacity=".85" d="M256 336C256 319.8 257.3 327.3 171 154.5A48 48 0 0 0 85 154.5C-2 328.8 0 320.3 0 336 0 380.2 57.3 416 128 416S256 380.2 256 336M128 176 200 320H56zM640 336C640 319.8 641.3 327.3 555 154.5A48 48 0 0 0 469 154.5C382 328.8 384 320.3 384 336 384 380.2 441.3 416 512 416S640 380.2 640 336M440 320 512 176 584 320zM528 448H352V153.3A80 80 0 0 0 398.4 96H528A16 16 0 0 0 544 80V48A16 16 0 0 0 528 32H383.6C369 12.7 346.1 0 320 0S271 12.7 256.4 32H112A16 16 0 0 0 96 48V80A16 16 0 0 0 112 96H241.6A80 80 0 0 0 288 153.3V448H112A16 16 0 0 0 96 464V496A16 16 0 0 0 112 512H528A16 16 0 0 0 544 496V464A16 16 0 0 0 528 448" transform="translate(8 6)scale(.02344)"/></g><g><path fill="#18181b" fill-opacity=".7" d="M27.9 7.3H29.2V16H27.9zM32.2 16H30.9V9.4H32.2zM31.5 8.4Q31.2 8.4 31 8.2T30.7 7.7Q30.7 7.4 31 7.1T31.5 6.9Q31.9 6.9 32.1 7.1 32.4 7.4 32.4 7.7T32.1 8.2 31.5 8.4M36.7 16.1Q35.7 16.1 35.1 15.7T34 14.5Q33.6 13.8 33.6 12.8 33.6 11.7 34 11 34.4 10.2 35.1 9.8 35.7 9.4 36.7 9.4L37.6 9.5Q38.1 9.6 38.4 9.9 38.8 10.1 39 10.5 39.3 10.8 39.4 11.3L38.2 11.6 38 11.1 37.7 10.8 37.2 10.5H36.7Q36.1 10.5 35.7 10.8T35.1 11.6 34.9 12.8Q34.9 13.4 35.1 13.9T35.7 14.7 36.7 15H37.2L37.7 14.7Q37.9 14.6 38 14.3L38.2 13.9 39.4 14.2 39.1 15 38.4 15.6Q38.1 15.9 37.6 16zM43.7 16.1Q42.7 16.1 42 15.7T40.9 14.5 40.5 12.8 40.9 11 42 9.8Q42.6 9.4 43.6 9.4L44.6 9.6Q45.2 9.7 45.6 10.1T46.2 11.1 46.5 12.7V13.1H41.3V12.2H45.8L45.2 12.5Q45.2 11.9 45 11.4T44.5 10.7Q44.1 10.4 43.6 10.4T42.6 10.7Q42.2 11 42 11.4T41.8 12.3V13Q41.8 13.7 42.1 14.1T42.7 14.8Q43.1 15.1 43.7 15.1L44.3 15 44.8 14.7 45.2 14.1 46.4 14.4Q46.2 14.9 45.8 15.3T44.9 15.9 43.7 16.1M49.2 12.1V16H47.9V9.4H49.1V11.1H49Q49.3 10.2 49.8 9.8T51.1 9.4Q51.8 9.4 52.3 9.6T53.1 10.5Q53.4 11 53.4 11.8V16H52.1V12Q52.1 11.3 51.7 10.9T50.7 10.5L49.9 10.7 49.4 11.2Q49.2 11.6 49.2 12.1M57.5 16.1Q56.7 16.1 56.2 15.9T55.3 15.3 54.8 14.3L56 14.1Q56.2 14.6 56.5 14.8 56.9 15.1 57.5 15.1T58.5 14.8Q58.8 14.6 58.8 14.2T58.6 13.7Q58.4 13.5 57.9 13.4L56.8 13.1Q55.9 12.9 55.4 12.5 55 12 55 11.3T55.3 10.3L56.2 9.6Q56.8 9.4 57.5 9.4T58.8 9.6L59.6 10.1Q59.9 10.5 60 11L58.9 11.3 58.4 10.6Q58.1 10.4 57.6 10.4T56.7 10.6Q56.3 10.9 56.3 11.2 56.3 11.6 56.5 11.8L57.3 12.1 58.4 12.3Q59.3 12.5 59.7 13T60.2 14.1 59.8 15.2Q59.5 15.6 58.9 15.9T57.5 16.1M64.4 16.1Q63.4 16.1 62.7 15.7T61.6 14.5Q61.3 13.8 61.3 12.8T61.6 11 62.7 9.8 64.3 9.4L65.4 9.6Q65.9 9.7 66.3 10.1L67 11.1Q67.2 11.8 67.2 12.7V13.1H62V12.2H66.5L65.9 12.5 65.8 11.4Q65.6 10.9 65.2 10.7 64.8 10.4 64.3 10.4T63.4 10.7 62.8 11.4 62.6 12.3V13Q62.6 13.7 62.8 14.1T63.4 14.8 64.4 15.1L65.1 15 65.6 14.7 65.9 14.1 67.1 14.4 66.6 15.3Q66.2 15.7 65.7 15.9T64.4 16.1"/></g><g><path fill="#18181b" d="M74.3 16H73V7.3H74.9L76.8 12.3 77 12.8 77.2 13.6 77.4 14.4 77.6 15.1H77.3L77.5 14.4 77.7 13.6 77.9 12.9 78.1 12.3 80 7.3H82V16H80.7V8.2H80.8L80.6 9.1 80.3 10 80 10.7 79.8 11.3 78 16H76.9L75.1 11.3 74.9 10.7 74.6 10 74.4 9.1 74.1 8.2H74.2V9.8L74.3 10.6zM83.9 7.3H85.3V16H83.9zM89.5 8.4H86.7V7.3H93.5V8.4H90.8V16H89.5z"/></g></svg>