<svg xmlns="http://www.w3.org/2000/svg" width="126" height="32" viewBox="0 0 126 32"><path fill="#fafafa" d="M6 0H120A6 6 0 0 1 126 6V26A6 6 0 0 1 120 32H6A6 6 0 0 1 0 26V6A6 6 0 0 1 6 0"/><g><path fill="#18181b" fill-opacity=".85" d="M1.8 0Q.2.2 0 1.8V22.2Q.2 23.8 1.8 24H22.2Q23.8 23.8 24 22.2V1.8Q23.8.2 22.2 0zM5 5.3H19V19.2H15.5V8.8H12V19.2H5.1z" transform="translate(12 8)scale(.66667)"/></g><g><path fill="#18181b" fill-opacity=".7" d="M36.5 16.5V21H35V13.4H36.4L36.5 15.2H36.3Q36.6 14.2 37.3 13.7T38.8 13.3Q39.6 13.3 40.2 13.6T41.1 14.6Q41.4 15.2 41.4 16.1V21H39.9V16.3Q39.9 15.5 39.5 15T38.3 14.6Q37.8 14.6 37.4 14.8T36.7 15.4Q36.5 15.9 36.5 16.5M44.9 23.9H43.4V13.4H44.9V14.6H45L45.4 14Q45.6 13.7 46.1 13.5T47.2 13.3Q48.1 13.3 48.9 13.7T50 15.1Q50.4 16 50.4 17.2T50 19.3 48.9 20.7 47.2 21.2Q46.5 21.2 46.1 20.9L45.4 20.4 45 19.8H44.9zM46.9 19.9Q47.5 19.9 48 19.5 48.4 19.2 48.7 18.6L48.9 17.2Q48.9 16.4 48.7 15.8T48 14.9Q47.6 14.5 46.9 14.5 46.3 14.5 45.8 14.9 45.4 15.2 45.1 15.8T44.9 17.2 45.1 18.6Q45.4 19.2 45.8 19.5 46.3 19.9 46.9 19.9M53.6 21H52.1V13.4H53.5L53.6 15.1H53.4L53.9 14.1Q54.3 13.6 54.7 13.4L55.7 13.2Q56.5 13.2 57.1 13.7T57.7 15.2H57.5Q57.7 14.6 58.1 14.1 58.4 13.7 59 13.5 59.5 13.2 60.1 13.2T61.3 13.5 62.2 14.4 62.5 15.8V21H61V16Q61 15.2 60.6 14.9T59.6 14.5Q59.1 14.5 58.7 14.7 58.4 14.9 58.2 15.3T58 16.1V21H56.6V15.9Q56.6 15.3 56.2 14.9T55.2 14.5Q54.7 14.5 54.4 14.7T53.8 15.3 53.6 16.2z"/></g><g><path fill="#18181b" d="M74.8 21H73.2L70.3 13.4H71.9L73.5 17.7 73.9 19.1 74.3 20.6H73.8L74.2 19.1 74.6 17.7 76.1 13.4H77.7zM82.6 21.1 81.2 20.9Q80.5 20.7 80 20.1T79.1 18.6Q78.8 17.7 78.8 16.2 78.8 14.9 79.1 13.9T79.9 12.1Q80.4 11.4 81.1 11.1T82.7 10.7 84.3 11 85.4 12 86 13.5H84.5Q84.3 12.8 83.9 12.4 83.4 12 82.7 12 81.9 12 81.4 12.5T80.6 13.7Q80.3 14.6 80.3 15.7H80.4L81 15 81.9 14.5 82.9 14.3Q83.8 14.3 84.5 14.8T85.7 15.9Q86.1 16.7 86.1 17.7T85.7 19.4Q85.2 20.2 84.4 20.7T82.6 21.1M82.5 19.8Q83.1 19.8 83.6 19.5 84 19.3 84.3 18.8T84.6 17.7 84.3 16.6 83.6 15.9 82.6 15.6 81.8 15.8Q81.4 15.9 81.1 16.2T80.7 16.9L80.5 17.7Q80.5 18.3 80.8 18.8 81 19.2 81.5 19.5T82.5 19.8M88.5 21.1Q88.1 21.1 87.8 20.8T87.5 20.1 87.8 19.4 88.5 19.1 89.3 19.4Q89.5 19.7 89.5 20.1T89.3 20.8 88.5 21.1M94.8 21.1Q93.6 21.1 92.8 20.5T91.5 18.7 91.1 15.9 91.5 13.1 92.8 11.3Q93.6 10.7 94.8 10.7T96.8 11.3Q97.7 11.9 98.1 13.1T98.5 15.9Q98.5 17.6 98.1 18.7 97.7 19.9 96.8 20.5T94.8 21.1M94.8 19.8Q95.5 19.8 96 19.3T96.7 18 97 15.9 96.7 13.8Q96.5 12.9 96 12.5T94.8 12 93.6 12.5Q93.1 12.9 92.9 13.8 92.6 14.7 92.6 15.9T92.9 18Q93.1 18.9 93.6 19.3T94.8 19.8M101.1 21.1Q100.6 21.1 100.4 20.8 100.1 20.5 100.1 20.1T100.4 19.4Q100.6 19.1 101.1 19.1T101.8 19.4 102.1 20.1 101.8 20.8 101.1 21.1M107.2 21.1Q106.2 21.1 105.4 20.8 104.6 20.4 104.1 19.8T103.6 18.3H105.2Q105.2 18.8 105.5 19.1L106.2 19.6 107.2 19.8Q107.8 19.8 108.3 19.6 108.7 19.4 109 19T109.3 18.1 109 17.3 108.2 16.6Q107.8 16.4 107.1 16.4H106.2V15.2H107.1Q107.6 15.2 108 15T108.7 14.4 109 13.5 108.7 12.7 108.1 12.2 107.2 12L106.3 12.2Q105.9 12.3 105.6 12.7L105.3 13.5H103.8Q103.9 12.6 104.3 12T105.6 11Q106.3 10.7 107.3 10.7T109 11.1 110.1 12.1 110.5 13.5 110 14.9 108.7 15.7V15.8Q109.4 15.9 109.9 16.2T110.6 17.1Q110.8 17.6 110.8 18.2 110.8 19 110.4 19.7T109.1 20.8Q108.3 21.1 107.2 21.1"/></g></svg>