<svg xmlns="http://www.w3.org/2000/svg" width="103" height="24" viewBox="0 0 103 24"><path fill="#fafafa" d="M6 0H97A6 6 0 0 1 103 6V18A6 6 0 0 1 97 24H6A6 6 0 0 1 0 18V6A6 6 0 0 1 6 0"/><g><path fill="#18181b" fill-opacity=".85" d="M1.8 0Q.2.2 0 1.8V22.2Q.2 23.8 1.8 24H22.2Q23.8 23.8 24 22.2V1.8Q23.8.2 22.2 0zM5 5.3H19V19.2H15.5V8.8H12V19.2H5.1z" transform="matrix(.5 0 0 .5 8 6)"/></g><g><path fill="#18181b" fill-opacity=".7" d="M26.2 12.1V16H24.9V9.4H26.1V11.1H26Q26.3 10.2 26.8 9.8T28.1 9.4Q28.8 9.4 29.3 9.6T30.1 10.5Q30.4 11 30.4 11.8V16H29.1V12Q29.1 11.3 28.7 10.9T27.7 10.5 26.9 10.7L26.4 11.2Q26.2 11.6 26.2 12.1M33.4 18.4H32.1V9.4H33.3V10.5H33.4L33.8 10 34.4 9.6Q34.7 9.4 35.3 9.4 36.1 9.4 36.7 9.8 37.4 10.2 37.7 10.9T38.1 12.7Q38.1 13.8 37.7 14.6 37.4 15.3 36.8 15.7T35.3 16.1Q34.7 16.1 34.4 15.9L33.8 15.5 33.4 15zM35.1 15Q35.6 15 36 14.7T36.6 13.9 36.8 12.7Q36.8 12.1 36.6 11.6T36 10.8 35.1 10.5Q34.5 10.5 34.1 10.7T33.5 11.5L33.4 12.7 33.5 13.9Q33.7 14.4 34.1 14.7T35.1 15M40.8 16H39.5V9.4H40.7L40.8 11H40.7Q40.8 10.4 41.1 10.1T41.8 9.5L42.6 9.3Q43.3 9.3 43.8 9.8T44.3 11H44.2Q44.3 10.5 44.6 10.1T45.4 9.5Q45.8 9.3 46.4 9.3T47.4 9.6Q47.9 9.8 48.2 10.3 48.4 10.8 48.4 11.6V16H47.1V11.7Q47.1 11.1 46.8 10.8 46.4 10.5 45.9 10.5L45.2 10.6Q44.9 10.8 44.8 11.1T44.6 11.8V16H43.3V11.6Q43.3 11.1 43 10.8T42.1 10.5L41.5 10.6 41 11.1 40.8 11.9z"/></g><g><path fill="#18181b" d="M58.1 16H56.7L54.3 9.4H55.7L57 13.2 57.3 14.4 57.7 15.6H57.3L57.6 14.4 57.9 13.2 59.2 9.4H60.6zM63.4 7.3H64.9V16H63.6V8.5H63.5L61.5 10V8.7zM69.5 16.1Q68.7 16.1 68.1 15.8T67.1 15 66.6 13.7H67.9Q68.1 14.3 68.5 14.6T69.5 15 70.6 14.6 71.3 13.5 71.5 11.8H71.4Q71.2 12.2 70.9 12.4 70.6 12.7 70.1 12.8L69.3 13Q68.5 13 67.9 12.6T66.9 11.6 66.5 10.1 66.9 8.6Q67.3 7.9 68 7.5T69.6 7.1L70.7 7.4Q71.3 7.6 71.8 8 72.2 8.5 72.5 9.3T72.8 11.3 72.5 13.4 71.9 14.9Q71.5 15.5 70.8 15.8 70.2 16.1 69.5 16.1M69.6 11.9 70.3 11.8 70.8 11.4 71.2 10.8 71.3 10.1Q71.3 9.6 71.1 9.2T70.5 8.5 69.6 8.3 68.7 8.5Q68.3 8.8 68.1 9.2 67.8 9.6 67.8 10.1T68.1 11 68.7 11.7 69.6 11.9M74.9 16.1Q74.6 16.1 74.3 15.8T74.1 15.2L74.3 14.6 74.9 14.4Q75.3 14.4 75.5 14.6 75.8 14.9 75.8 15.2 75.8 15.6 75.5 15.8 75.3 16.1 74.9 16.1M83.4 16H77.6V15L80.6 12 81.3 11.1 81.8 10.4 81.9 9.7Q81.9 9.2 81.7 8.9L81.2 8.4 80.4 8.3Q79.9 8.3 79.6 8.5T79.1 9 78.9 9.8H77.6Q77.6 9 78 8.4 78.3 7.8 79 7.5T80.4 7.2Q81.3 7.2 81.9 7.5T82.9 8.4Q83.2 8.9 83.2 9.6L83 10.6Q82.9 11 82.4 11.6L81.2 13 79.4 14.8V14.9H83.4zM86 16.1Q85.6 16.1 85.4 15.8 85.1 15.6 85.1 15.2T85.4 14.6Q85.6 14.4 86 14.4L86.6 14.6 86.8 15.2Q86.8 15.6 86.6 15.8 86.3 16.1 86 16.1M90.1 16H88.7L92.5 8.5V8.4H88.1V7.3H93.9V8.5z"/></g></svg>