<svg xmlns="http://www.w3.org/2000/svg" width="130" height="32" viewBox="0 0 130 32"><path fill="#dc2626" d="M6 0H124A6 6 0 0 1 130 6V26A6 6 0 0 1 124 32H6A6 6 0 0 1 0 26V6A6 6 0 0 1 6 0"/><g><path fill="#fff" fill-opacity=".85" d="M1.8 0Q.2.2 0 1.8V22.2Q.2 23.8 1.8 24H22.2Q23.8 23.8 24 22.2V1.8Q23.8.2 22.2 0zM5 5.3H19V19.2H15.5V8.8H12V19.2H5.1z" transform="translate(12 8)scale(.66667)"/></g><g><path fill="#fff" fill-opacity=".7" d="M36.5 16.5V21H35V13.4H36.4L36.5 15.2H36.3Q36.6 14.2 37.3 13.7T38.8 13.3Q39.6 13.3 40.2 13.6T41.1 14.6Q41.4 15.2 41.4 16.1V21H39.9V16.3Q39.9 15.5 39.5 15T38.3 14.6Q37.8 14.6 37.4 14.8T36.7 15.4Q36.5 15.9 36.5 16.5M44.9 23.9H43.4V13.4H44.9V14.6H45L45.4 14Q45.6 13.7 46.1 13.5T47.2 13.3Q48.1 13.3 48.9 13.7T50 15.1Q50.4 16 50.4 17.2T50 19.3 48.9 20.7 47.2 21.2Q46.5 21.2 46.1 20.9L45.4 20.4 45 19.8H44.9zM46.9 19.9Q47.5 19.9 48 19.5 48.4 19.2 48.7 18.6L48.9 17.2Q48.9 16.4 48.7 15.8T48 14.9Q47.6 14.5 46.9 14.5 46.3 14.5 45.8 14.9 45.4 15.2 45.1 15.8T44.9 17.2 45.1 18.6Q45.4 19.2 45.8 19.5 46.3 19.9 46.9 19.9M53.6 21H52.1V13.4H53.5L53.6 15.1H53.4L53.9 14.1Q54.3 13.6 54.7 13.4L55.7 13.2Q56.5 13.2 57.1 13.7T57.7 15.2H57.5Q57.7 14.6 58.1 14.1 58.4 13.7 59 13.5 59.5 13.2 60.1 13.2T61.3 13.5 62.2 14.4 62.5 15.8V21H61V16Q61 15.2 60.6 14.9T59.6 14.5Q59.1 14.5 58.7 14.7 58.4 14.9 58.2 15.3T58 16.1V21H56.6V15.9Q56.6 15.3 56.2 14.9T55.2 14.5Q54.7 14.5 54.4 14.7T53.8 15.3 53.6 16.2z"/></g><g><path fill="#fff" d="M74.8 21H73.2L70.3 13.4H71.9L73.5 17.7 73.9 19.1 74.3 20.6H73.8L74.2 19.1 74.6 17.7 76.1 13.4H77.7zM80.9 10.8H82.7V21H81.2V12.2H81.1L78.7 14V12.4zM88.1 21.1Q87.1 21.1 86.4 20.8 85.7 20.4 85.3 19.8T84.7 18.3H86.3Q86.4 19 86.9 19.4T88.1 19.8 89.3 19.3Q89.9 18.9 90.1 18.1T90.4 16.1H90.3Q90.1 16.5 89.7 16.8L88.8 17.3Q88.4 17.5 87.8 17.5 86.9 17.5 86.2 17T85.1 15.9Q84.6 15.1 84.6 14.1T85.1 12.4Q85.5 11.6 86.3 11.1T88.2 10.7Q88.9 10.7 89.5 10.9T90.7 11.7 91.6 13.2 91.9 15.6Q91.9 16.9 91.6 17.9 91.4 19 90.9 19.7T89.7 20.8Q88.9 21.1 88.1 21.1M88.1 16.2Q88.6 16.2 89 16L89.6 15.6 90.1 14.9 90.2 14.1Q90.2 13.5 90 13.1T89.2 12.3Q88.8 12 88.2 12T87.1 12.3L86.4 13Q86.2 13.5 86.2 14.1T86.4 15.2L87.1 15.9Q87.6 16.2 88.1 16.2M94.4 21.1Q94 21.1 93.7 20.8T93.4 20.1 93.7 19.4 94.4 19.1 95.1 19.4 95.4 20.1 95.1 20.8 94.4 21.1M104.3 21H97.5V19.9L101 16.3 101.9 15.3 102.4 14.5Q102.6 14.1 102.6 13.6T102.4 12.7L101.7 12.2Q101.3 12 100.8 12T99.9 12.2Q99.4 12.4 99.2 12.8T99 13.8H97.5Q97.5 12.9 97.9 12.2T99.1 11.1 100.8 10.7 102.5 11.1Q103.3 11.4 103.7 12.1T104.1 13.6L103.9 14.7 103.2 15.9 101.7 17.5 99.7 19.6V19.7H104.3zM107.3 21.1Q106.9 21.1 106.6 20.8T106.3 20.1 106.6 19.4 107.3 19.1 108 19.4 108.3 20.1 108 20.8 107.3 21.1M112.1 21H110.5L114.9 12.2V12.1H109.8V10.8H116.5V12.2z"/></g></svg>