<svg xmlns="http://www.w3.org/2000/svg" width="132" height="32" viewBox="0 0 132 32"><defs><clipPath id="satori_bc-id"><path d="M6 0H126A6 6 0 0 1 132 6V26A6 6 0 0 1 126 32H6A6 6 0 0 1 0 26V6A6 6 0 0 1 6 0"/></clipPath></defs><path fill="none" stroke="#3f3f46" stroke-width="2" d="M1.8 1.8A6 6 0 0 1 6 0H126A6 6 0 0 1 132 6V26A6 6 0 0 1 126 32H6A6 6 0 0 1 0 26V6A6 6 0 0 1 1.8 1.8" clip-path="url(#satori_bc-id)"/><g><path fill="#fafafa" fill-opacity=".85" d="M1.8 0Q.2.2 0 1.8V22.2Q.2 23.8 1.8 24H22.2Q23.8 23.8 24 22.2V1.8Q23.8.2 22.2 0zM5 5.3H19V19.2H15.5V8.8H12V19.2H5.1z" transform="translate(13 8)scale(.66667)"/></g><g><path fill="#fafafa" fill-opacity=".7" d="M37.5 16.5V21H36V13.4H37.4L37.5 15.2H37.3Q37.6 14.2 38.3 13.7T39.8 13.3Q40.6 13.3 41.2 13.6T42.1 14.6Q42.4 15.2 42.4 16.1V21H40.9V16.3Q40.9 15.5 40.5 15T39.3 14.6Q38.8 14.6 38.4 14.8T37.7 15.4Q37.5 15.9 37.5 16.5M45.9 23.9H44.4V13.4H45.9V14.6H46L46.4 14Q46.6 13.7 47.1 13.5T48.2 13.3Q49.1 13.3 49.9 13.7T51 15.1Q51.4 16 51.4 17.2T51 19.3 49.9 20.7 48.2 21.2Q47.5 21.2 47.1 20.9L46.4 20.4 46 19.8H45.9zM47.9 19.9Q48.5 19.9 49 19.5 49.4 19.2 49.7 18.6L49.9 17.2Q49.9 16.4 49.7 15.8T49 14.9Q48.6 14.5 47.9 14.5 47.3 14.5 46.8 14.9 46.4 15.2 46.1 15.8T45.9 17.2 46.1 18.6Q46.4 19.2 46.8 19.5 47.3 19.9 47.9 19.9M54.6 21H53.1V13.4H54.5L54.6 15.1H54.4L54.9 14.1Q55.3 13.6 55.7 13.4L56.7 13.2Q57.5 13.2 58.1 13.7T58.7 15.2H58.5Q58.7 14.6 59.1 14.1 59.4 13.7 60 13.5 60.5 13.2 61.1 13.2T62.3 13.5 63.2 14.4 63.5 15.8V21H62V16Q62 15.2 61.6 14.9T60.6 14.5Q60.1 14.5 59.7 14.7 59.4 14.9 59.2 15.3T59 16.1V21H57.6V15.9Q57.6 15.3 57.2 14.9T56.2 14.5Q55.7 14.5 55.4 14.7T54.8 15.3 54.6 16.2z"/></g><g><path fill="#fafafa" d="M75.8 21H74.2L71.3 13.4H72.9L74.5 17.7 74.9 19.1 75.3 20.6H74.8L75.2 19.1 75.6 17.7 77.1 13.4H78.7zM81.9 10.8H83.7V21H82.2V12.2H82.1L79.7 14V12.4zM89.1 21.1Q88.1 21.1 87.4 20.8 86.7 20.4 86.3 19.8T85.7 18.3H87.3Q87.4 19 87.9 19.4T89.1 19.8 90.3 19.3Q90.9 18.9 91.1 18.1T91.4 16.1H91.3Q91.1 16.5 90.7 16.8L89.8 17.3Q89.4 17.5 88.8 17.5 87.9 17.5 87.2 17T86.1 15.9Q85.6 15.1 85.6 14.1T86.1 12.4Q86.5 11.6 87.3 11.1T89.2 10.7Q89.9 10.7 90.5 10.9T91.7 11.7 92.6 13.2 92.9 15.6Q92.9 16.9 92.6 17.9 92.4 19 91.9 19.7T90.7 20.8Q89.9 21.1 89.1 21.1M89.1 16.2Q89.6 16.2 90 16L90.6 15.6 91.1 14.9 91.2 14.1Q91.2 13.5 91 13.1T90.2 12.3Q89.8 12 89.2 12T88.1 12.3L87.4 13Q87.2 13.5 87.2 14.1T87.4 15.2L88.1 15.9Q88.6 16.2 89.1 16.2M95.4 21.1Q95 21.1 94.7 20.8T94.4 20.1 94.7 19.4 95.4 19.1 96.1 19.4 96.4 20.1 96.1 20.8 95.4 21.1M105.3 21H98.5V19.9L102 16.3 102.9 15.3 103.4 14.5Q103.6 14.1 103.6 13.6T103.4 12.7L102.7 12.2Q102.3 12 101.8 12T100.9 12.2Q100.4 12.4 100.2 12.8T100 13.8H98.5Q98.5 12.9 98.9 12.2T100.1 11.1 101.8 10.7 103.5 11.1Q104.3 11.4 104.7 12.1T105.1 13.6L104.9 14.7 104.2 15.9 102.7 17.5 100.7 19.6V19.7H105.3zM108.3 21.1Q107.9 21.1 107.6 20.8T107.3 20.1 107.6 19.4 108.3 19.1 109 19.4 109.3 20.1 109 20.8 108.3 21.1M113.1 21H111.5L115.9 12.2V12.1H110.8V10.8H117.5V12.2z"/></g></svg>