<svg xmlns="http://www.w3.org/2000/svg" width="131" height="32" viewBox="0 0 131 32"><path fill="#fafafa" d="M6 0H125A6 6 0 0 1 131 6V26A6 6 0 0 1 125 32H6A6 6 0 0 1 0 26V6A6 6 0 0 1 6 0"/><g><path fill="#18181b" fill-opacity=".85" d="M12.7.7 15.7 6.9 22.6 7.9A1 1 0 0 1 23 9L18 14 19.2 20.8A1 1 0 0 1 18.2 21.6L12 18.3 5.9 21.6A.8.8 0 0 1 4.8 20.8L6 14 1 9A1 1 0 0 1 1.4 8L8.3 6.9 11.3.7A.8.8 0 0 1 12.7.7" transform="translate(12 8)scale(.66667)"/></g><g><path fill="#18181b" fill-opacity=".7" d="M37.8 21.2Q36.9 21.2 36.3 20.9T35.2 20.2Q34.8 19.7 34.7 19.1L36.1 18.8Q36.2 19.4 36.7 19.7 37.1 19.9 37.8 19.9T38.9 19.6 39.4 18.9 39.1 18.3L38.3 17.9 37 17.7Q35.9 17.4 35.4 16.9T34.9 15.5Q34.9 14.9 35.3 14.3T36.3 13.5Q37 13.3 37.8 13.3T39.3 13.5Q39.9 13.7 40.2 14.2T40.7 15.2L39.4 15.5Q39.3 15.1 38.9 14.8T37.9 14.5Q37.2 14.5 36.8 14.7T36.4 15.4Q36.4 15.8 36.7 16.1L37.6 16.4 38.8 16.7Q39.9 17 40.4 17.5T40.9 18.8Q40.9 19.5 40.5 20T39.4 20.9 37.8 21.2M41.7 13.4H45.8V14.6H41.7zM42.8 19.1V11.5H44.3V18.9Q44.3 19.4 44.5 19.6T45.1 19.8H45.4L45.8 19.7 46 20.9 45.5 21.1H45Q43.9 21.1 43.4 20.6T42.8 19.1M49.5 21.2Q48.7 21.2 48.1 20.9T47.2 20.1 46.9 18.8Q46.9 18.2 47.1 17.8L47.8 17.1 48.7 16.7 49.8 16.6 50.9 16.4 51.5 16.3 51.7 15.9V15.8L51.6 15.1 51.1 14.6 50.3 14.5 49.4 14.6 48.8 15 48.5 15.5 47.1 15.2Q47.4 14.5 47.8 14.1 48.3 13.6 49 13.5L50.2 13.3 51.2 13.4Q51.8 13.5 52.2 13.8T53 14.6Q53.2 15.1 53.2 15.9V21H51.8V20H51.7L51.3 20.5 50.5 21Q50.1 21.2 49.5 21.2M49.8 20Q50.4 20 50.8 19.7T51.5 19.1Q51.7 18.7 51.7 18.2V17.3L51.4 17.4 50.9 17.5 50.3 17.6 49.9 17.7 49.1 17.9 48.6 18.2Q48.3 18.5 48.3 18.9L48.5 19.5 49 19.8zM56.8 21H55.3V13.4H56.7V14.6H56.8Q57 14 57.5 13.6 58.1 13.2 58.7 13.2L59.1 13.3H59.4V14.7H59.1L58.6 14.6Q58.1 14.6 57.7 14.9T57 15.5Q56.8 15.9 56.8 16.4zM63.4 21.2Q62.6 21.2 61.9 20.9T60.9 20.2Q60.5 19.7 60.3 19.1L61.8 18.8Q61.9 19.4 62.3 19.7 62.8 19.9 63.4 19.9 64.2 19.9 64.6 19.6T65 18.9 64.8 18.3L63.9 17.9 62.7 17.7Q61.6 17.4 61.1 16.9T60.6 15.5Q60.6 14.9 60.9 14.3 61.3 13.8 62 13.5 62.6 13.3 63.5 13.3T64.9 13.5 65.9 14.2 66.4 15.2L65.1 15.5 64.6 14.8Q64.2 14.5 63.5 14.5 62.9 14.5 62.5 14.7T62.1 15.4Q62.1 15.8 62.4 16.1T63.3 16.4L64.5 16.7Q65.5 17 66.1 17.5 66.6 18 66.6 18.8 66.6 19.5 66.2 20T65.1 20.9 63.4 21.2"/></g><g><path fill="#18181b" d="M81.7 21H75V19.9L78.4 16.3 79.3 15.3 79.9 14.5Q80.1 14.1 80.1 13.6T79.8 12.7 79.2 12.2 78.3 12 77.3 12.2 76.7 12.8 76.5 13.8H75Q75 12.9 75.4 12.2T76.6 11.1 78.3 10.7 80 11.1Q80.7 11.4 81.1 12.1T81.6 13.6Q81.6 14.1 81.3 14.7L80.6 15.9 79.1 17.5 77.1 19.6V19.7H81.7zM90.8 19H83.2V17.8L87.6 10.8H88.6V12.7H87.9L84.8 17.6V17.7H90.8zM89.5 21H88V10.8H89.5zM96.1 21.1Q95.4 21.1 94.8 20.9T93.5 20.1Q93 19.5 92.7 18.6T92.4 16.2Q92.4 14.9 92.6 13.9T93.4 12.1Q93.9 11.4 94.6 11.1T96.2 10.7 97.8 11 99 12Q99.4 12.7 99.6 13.5H98Q97.9 12.8 97.4 12.4T96.2 12 95 12.5 94.1 13.7Q93.9 14.6 93.9 15.7L94.6 15 95.5 14.5Q95.9 14.3 96.5 14.3 97.4 14.3 98.1 14.8T99.2 15.9Q99.6 16.7 99.6 17.7T99.2 19.4Q98.8 20.2 98 20.7T96.1 21.1M96.1 19.8Q96.7 19.8 97.1 19.5T97.9 18.8Q98.1 18.3 98.1 17.7T97.9 16.6L97.2 15.9Q96.7 15.6 96.1 15.6L95.3 15.8Q94.9 15.9 94.7 16.2L94.2 16.9 94.1 17.7Q94.1 18.3 94.3 18.8 94.6 19.2 95.1 19.5T96.1 19.8M102.1 21.1Q101.7 21.1 101.4 20.8T101.1 20.1 101.4 19.4 102.1 19.1 102.8 19.4 103.1 20.1 102.8 20.8 102.1 21.1M105.9 10.8H107.7V21H106.1V12.2H106L103.6 14V12.4zM112.6 17.1 111.2 18.4V16.6H111.4L114.5 13.4H116.3L112.8 17.1zM111.3 21H109.8V10.8H111.3zM116.5 21H114.6L111.9 17.4 112.9 16.3z"/></g></svg>