<svg xmlns="http://www.w3.org/2000/svg" width="131" height="32" viewBox="0 0 131 32"><path fill="#fafafa" d="M6 0H125A6 6 0 0 1 131 6V26A6 6 0 0 1 125 32H6A6 6 0 0 1 0 26V6A6 6 0 0 1 6 0"/><g><path fill="#18181b" fill-opacity=".85" d="M12.7.7 15.7 6.9 22.6 7.9A1 1 0 0 1 23 9L18 14 19.2 20.8A1 1 0 0 1 18.2 21.6L12 18.3 5.9 21.6A.8.8 0 0 1 4.8 20.8L6 14 1 9A1 1 0 0 1 1.4 8L8.3 6.9 11.3.7A.8.8 0 0 1 12.7.7" transform="translate(12 8)scale(.66667)"/></g><g><path fill="#18181b" fill-opacity=".7" d="M37.8 21.2Q36.9 21.2 36.3 20.9T35.2 20.2Q34.8 19.7 34.7 19.1L36.1 18.8Q36.2 19.4 36.7 19.7 37.1 19.9 37.8 19.9T38.9 19.6 39.4 18.9 39.1 18.3L38.3 17.9 37 17.7Q35.9 17.4 35.4 16.9T34.9 15.5Q34.9 14.9 35.3 14.3T36.3 13.5Q37 13.3 37.8 13.3T39.3 13.5Q39.9 13.7 40.2 14.2T40.7 15.2L39.4 15.5Q39.3 15.1 38.9 14.8T37.9 14.5Q37.2 14.5 36.8 14.7T36.4 15.4Q36.4 15.8 36.7 16.1L37.6 16.4 38.8 16.7Q39.9 17 40.4 17.5T40.9 18.8Q40.9 19.5 40.5 20T39.4 20.9 37.8 21.2M41.7 13.4H45.8V14.6H41.7zM42.8 19.1V11.5H44.3V18.9Q44.3 19.4 44.5 19.6T45.1 19.8H45.4L45.8 19.7 46 20.9 45.5 21.1H45Q43.9 21.1 43.4 20.6T42.8 19.1M49.5 21.2Q48.7 21.2 48.1 20.9T47.2 20.1 46.9 18.8Q46.9 18.2 47.1 17.8L47.8 17.1 48.7 16.7 49.8 16.6 50.9 16.4 51.5 16.3 51.7 15.9V15.8L51.6 15.1 51.1 14.6 50.3 14.5 49.4 14.6 48.8 15 48.5 15.5 47.1 15.2Q47.4 14.5 47.8 14.1 48.3 13.6 49 13.5L50.2 13.3 51.2 13.4Q51.8 13.5 52.2 13.8T53 14.6Q53.2 15.1 53.2 15.9V21H51.8V20H51.7L51.3 20.5 50.5 21Q50.1 21.2 49.5 21.2M49.8 20Q50.4 20 50.8 19.7T51.5 19.1Q51.7 18.7 51.7 18.2V17.3L51.4 17.4 50.9 17.5 50.3 17.6 49.9 17.7 49.1 17.9 48.6 18.2Q48.3 18.5 48.3 18.9L48.5 19.5 49 19.8zM56.8 21H55.3V13.4H56.7V14.6H56.8Q57 14 57.5 13.6 58.1 13.2 58.7 13.2L59.1 13.3H59.4V14.7H59.1L58.6 14.6Q58.1 14.6 57.7 14.9T57 15.5Q56.8 15.9 56.8 16.4zM63.4 21.2Q62.6 21.2 61.9 20.9T60.9 20.2Q60.5 19.7 60.3 19.1L61.8 18.8Q61.9 19.4 62.3 19.7 62.8 19.9 63.4 19.9 64.2 19.9 64.6 19.6T65 18.9 64.8 18.3L63.9 17.9 62.7 17.7Q61.6 17.4 61.1 16.9T60.6 15.5Q60.6 14.9 60.9 14.3 61.3 13.8 62 13.5 62.6 13.3 63.5 13.3T64.9 13.5 65.9 14.2 66.4 15.2L65.1 15.5 64.6 14.8Q64.2 14.5 63.5 14.5 62.9 14.5 62.5 14.7T62.1 15.4Q62.1 15.8 62.4 16.1T63.3 16.4L64.5 16.7Q65.5 17 66.1 17.5 66.6 18 66.6 18.8 66.6 19.5 66.2 20T65.1 20.9 63.4 21.2"/></g><g><path fill="#18181b" d="M76.9 10.8H78.7V21H77.1V12.2L74.6 14V12.4zM88.2 19H80.6V17.8L85 10.8H86V12.7H85.3L82.2 17.6V17.7H88.2zM86.9 21H85.4V10.8H86.9zM93.5 21.1Q92.3 21.1 91.5 20.5T90.2 18.7 89.8 15.9 90.2 13.1Q90.7 11.9 91.5 11.3T93.5 10.7 95.5 11.3Q96.4 11.9 96.8 13.1T97.3 15.9Q97.3 17.6 96.8 18.7 96.4 19.9 95.5 20.5T93.5 21.1M93.5 19.8Q94.2 19.8 94.7 19.3T95.5 18 95.7 15.9 95.5 13.8Q95.2 12.9 94.7 12.5T93.5 12 92.3 12.5Q91.8 12.9 91.6 13.8 91.3 14.7 91.3 15.9T91.6 18 92.3 19.3 93.5 19.8M99.8 21.1Q99.4 21.1 99.1 20.8T98.8 20.1 99.1 19.4 99.8 19.1 100.5 19.4 100.8 20.1 100.5 20.8 99.8 21.1M109.6 21H102.9V19.9L106.3 16.3 107.2 15.3 107.8 14.5Q108 14.1 108 13.6T107.7 12.7 107.1 12.2 106.2 12 105.2 12.2 104.6 12.8 104.4 13.8H102.9Q102.9 12.9 103.3 12.2T104.5 11.1Q105.2 10.7 106.2 10.7T107.9 11.1 109 12.1Q109.5 12.7 109.5 13.6 109.5 14.1 109.2 14.7L108.5 15.9 107 17.5 105 19.6V19.7H109.6zM114.3 17.1 112.9 18.4V16.6H113.2L116.2 13.4H118L114.6 17.1zM113 21H111.5V10.8H113zM118.2 21H116.4L113.6 17.4 114.7 16.3z"/></g></svg>