<svg xmlns="http://www.w3.org/2000/svg" width="87" height="24" viewBox="0 0 87 24"><path fill="#fafafa" d="M6 0H81A6 6 0 0 1 87 6V18A6 6 0 0 1 81 24H6A6 6 0 0 1 0 18V6A6 6 0 0 1 6 0"/><g><path fill="#18181b" fill-opacity=".85" d="M12.7.7 15.7 6.9 22.6 7.9A1 1 0 0 1 23 9L18 14 19.2 20.8A1 1 0 0 1 18.2 21.6L12 18.3 5.9 21.6A.8.8 0 0 1 4.8 20.8L6 14 1 9A1 1 0 0 1 1.4 8L8.3 6.9 11.3.7A.8.8 0 0 1 12.7.7" transform="matrix(.5 0 0 .5 8 6)"/></g><g><path fill="#18181b" fill-opacity=".7" d="M27.2 16.1Q26.5 16.1 26 15.9T25 15.3Q24.7 14.9 24.6 14.3L25.8 14.1Q25.9 14.6 26.3 14.8 26.7 15.1 27.2 15.1T28.2 14.8Q28.6 14.6 28.6 14.2T28.4 13.7L27.7 13.4 26.6 13.1Q25.7 12.9 25.2 12.5 24.8 12 24.8 11.3T25.1 10.3 26 9.6Q26.6 9.4 27.3 9.4T28.5 9.6L29.3 10.1 29.8 11 28.6 11.3Q28.5 10.9 28.2 10.6T27.3 10.4Q26.8 10.4 26.4 10.6 26.1 10.9 26.1 11.2 26.1 11.6 26.3 11.8T27.1 12.1L28.1 12.3Q29 12.5 29.5 13T29.9 14.1Q29.9 14.7 29.6 15.2L28.6 15.9Q28 16.1 27.2 16.1M30.6 9.4H34.1V10.5H30.6zM31.5 14.3V7.9H32.8V14.2Q32.8 14.6 33 14.8T33.5 15H33.8L34.1 14.9 34.3 16 33.9 16.1H33.4Q32.5 16.1 32 15.6T31.5 14.3M37.2 16.1Q36.6 16.1 36.1 15.9T35.3 15.2 35 14.1 35.2 13.2L35.8 12.7 36.6 12.3 37.6 12.2 38.5 12.1 39 11.9Q39.2 11.8 39.2 11.6L39.1 10.9 38.6 10.6Q38.4 10.4 38 10.4L37.2 10.5 36.7 10.9 36.4 11.3 35.2 11Q35.4 10.4 35.9 10.1T36.8 9.5L37.9 9.4 38.8 9.5 39.6 9.8Q40 10 40.2 10.5 40.5 10.9 40.5 11.7V16H39.2V15.1Q39.1 15.4 38.8 15.6L38.2 16zM37.5 15.1Q38.1 15.1 38.4 14.9T39 14.4L39.2 13.6V12.8L38.9 12.9 38.5 13 38 13.1H37.6L37 13.3 36.5 13.6Q36.3 13.8 36.3 14.2T36.5 14.7Q36.6 14.9 36.9 15zM43.5 16H42.2V9.4H43.5V10.5Q43.7 10 44.2 9.7T45.2 9.4H45.8V10.6H45.1L44.3 10.7Q43.9 10.9 43.7 11.3T43.5 12zM49.2 16.1Q48.5 16.1 48 15.9T47 15.3Q46.7 14.9 46.6 14.3L47.8 14.1Q47.9 14.6 48.3 14.8 48.7 15.1 49.2 15.1 49.9 15.1 50.2 14.8T50.6 14.2Q50.6 13.9 50.4 13.7L49.7 13.4 48.6 13.1Q47.7 12.9 47.2 12.5 46.8 12 46.8 11.3T47.1 10.3 48 9.6Q48.6 9.4 49.3 9.4T50.5 9.6L51.3 10.1 51.8 11 50.6 11.3Q50.5 10.9 50.2 10.6T49.3 10.4Q48.8 10.4 48.4 10.6 48.1 10.9 48.1 11.2 48.1 11.6 48.3 11.8T49.1 12.1L50.1 12.3Q51 12.5 51.5 13T51.9 14.1Q51.9 14.7 51.6 15.2L50.6 15.9Q50 16.1 49.2 16.1"/></g><g><path fill="#18181b" d="M60.6 16.1Q59.7 16.1 59.1 15.8T58.1 15 57.7 13.7H59Q59 14.1 59.2 14.4T59.8 14.8 60.6 15 61.4 14.8 62 14.1 62.3 13.2 62 12.3Q61.8 11.8 61.4 11.6T60.5 11.4L59.7 11.5Q59.3 11.6 59.1 11.9L57.8 11.7 58.3 7.3H63.1V8.4H59.4L59.2 10.8 59.9 10.4 60.8 10.3Q61.4 10.3 61.9 10.5T62.8 11.1 63.4 12 63.6 13.2Q63.6 14 63.2 14.7T62.1 15.7 60.6 16.1M70.8 16H65.1V15L68 12 68.8 11.1 69.3 10.4 69.4 9.7Q69.4 9.2 69.2 8.9L68.7 8.4 67.9 8.3Q67.4 8.3 67.1 8.5T66.5 9L66.4 9.8H65.1Q65.1 9 65.4 8.4 65.8 7.8 66.4 7.5T67.9 7.2Q68.7 7.2 69.4 7.5T70.4 8.4 70.7 9.6L70.5 10.6Q70.4 11 69.9 11.6T68.6 13L66.9 14.8V14.9H70.8zM75.2 16.1Q74.4 16.1 73.7 15.8T72.7 15Q72.3 14.4 72.3 13.7H73.6Q73.6 14.1 73.9 14.4T74.4 14.8L75.2 15Q75.7 15 76.1 14.8T76.7 14.1Q76.9 13.7 76.9 13.2T76.7 12.3Q76.4 11.8 76 11.6T75.1 11.4L74.3 11.5Q73.9 11.6 73.7 11.9L72.5 11.7 72.9 7.3H77.8V8.4H74.1L73.8 10.8 74.5 10.4 75.4 10.3Q76 10.3 76.5 10.5T77.4 11.1 78 12 78.2 13.2Q78.2 14 77.8 14.7T76.7 15.7 75.2 16.1"/></g></svg>