<svg xmlns="http://www.w3.org/2000/svg" width="201" height="24" viewBox="0 0 201 24"><path d="M6 0H195A6 6 0 0 1 201 6V18A6 6 0 0 1 195 24H6A6 6 0 0 1 0 18V6A6 6 0 0 1 6 0"/><g><path fill="#fff" d="M12 1.6 24 22.4H0Z" transform="matrix(.5 0 0 .5 8 6)"/></g><g><path fill="#fff" d="M29.1 16H27.5L24.3 7.3H25.7L27.4 12.1 27.9 13.5 28.4 15.4H28.1L28.7 13.5 29.1 12.1 30.8 7.3H32.2zM36.2 16.1Q35.2 16.1 34.5 15.7T33.4 14.5Q33.1 13.8 33.1 12.8T33.4 11Q33.8 10.2 34.5 9.8T36.1 9.4Q36.7 9.4 37.2 9.6 37.7 9.7 38.1 10.1L38.8 11.1Q39 11.8 39 12.7V13.1H33.8V12.2H38.3L37.7 12.5 37.6 11.4Q37.4 10.9 37 10.7 36.6 10.4 36.1 10.4T35.2 10.7 34.6 11.4 34.4 12.3V13Q34.4 13.7 34.6 14.1T35.2 14.8Q35.7 15.1 36.2 15.1L36.9 15 37.4 14.7 37.7 14.1 38.9 14.4Q38.8 14.9 38.4 15.3T37.5 15.9Q36.9 16.1 36.2 16.1M41.7 16H40.4V9.4H41.7V10.5Q41.9 10 42.4 9.7T43.4 9.4H43.9V10.6H43.3L42.5 10.7Q42.1 10.9 41.9 11.3T41.7 12zM47.8 16.1Q46.9 16.1 46.2 15.7T45.1 14.5Q44.8 13.8 44.8 12.8 44.8 11.7 45.1 11 45.5 10.2 46.2 9.8T47.8 9.4L48.8 9.5 49.6 9.9 50.2 10.5 50.6 11.3 49.3 11.6Q49.3 11.3 49.1 11.1L48.8 10.8 48.4 10.5H47.8Q47.2 10.5 46.8 10.8L46.3 11.6Q46.1 12.1 46.1 12.8T46.3 13.9L46.8 14.7Q47.2 15 47.8 15H48.4L48.8 14.7 49.2 14.3 49.4 13.9 50.6 14.2 50.2 15 49.6 15.6 48.8 16zM54.8 16.1Q53.8 16.1 53.1 15.7T52.1 14.5 51.7 12.8 52.1 11Q52.4 10.2 53.1 9.8T54.7 9.4Q55.3 9.4 55.8 9.6 56.3 9.7 56.7 10.1L57.4 11.1Q57.6 11.8 57.6 12.7V13.1H52.4V12.2H57L56.4 12.5Q56.4 11.9 56.2 11.4T55.6 10.7Q55.3 10.4 54.7 10.4 54.2 10.4 53.8 10.7T53.2 11.4 53 12.3V13Q53 13.7 53.2 14.1T53.9 14.8 54.8 15.1L55.5 15 56 14.7 56.3 14.1 57.5 14.4Q57.4 14.9 57 15.3T56.1 15.9Q55.5 16.1 54.8 16.1M59 7.3H60.3V16H59zM69 16.1Q67.9 16.1 67 15.6T65.6 14 65.1 11.6 65.6 9.2 67 7.7 69 7.2 71 7.7 72.4 9.2 72.9 11.6 72.4 14 71 15.6Q70.1 16.1 69 16.1M69 14.9Q69.7 14.9 70.3 14.5 70.9 14.2 71.3 13.4 71.6 12.7 71.6 11.6 71.6 10.6 71.3 9.8 70.9 9.1 70.3 8.7 69.7 8.4 69 8.4T67.7 8.7Q67.1 9.1 66.7 9.9 66.4 10.6 66.4 11.6 66.4 12.7 66.7 13.4 67.1 14.1 67.7 14.5T69 14.9M77.5 16.1Q76.5 16.1 75.8 15.8T74.7 14.9 74.2 13.6H75.6Q75.6 14 75.9 14.4 76.1 14.7 76.6 14.8T77.5 15L78.5 14.8 79.2 14.3Q79.4 14 79.4 13.6T79.2 12.9L78.6 12.5 77.7 12.3 76.7 12Q75.7 11.7 75.1 11.1 74.5 10.6 74.5 9.7T74.9 8.3 76 7.5 77.5 7.2 79.1 7.5 80.2 8.3 80.6 9.6H79.3Q79.2 9 78.8 8.6 78.3 8.3 77.5 8.3 77 8.3 76.6 8.5 76.2 8.6 76 8.9T75.8 9.6 76 10.3L76.7 10.7 77.4 10.9 78.2 11.1 79.1 11.4 79.9 11.9Q80.3 12.2 80.5 12.6T80.7 13.6 80.3 14.9Q80 15.5 79.2 15.8 78.5 16.1 77.5 16.1M85.2 16.1Q84.3 16.1 83.5 15.8T82.4 14.9Q82 14.4 82 13.6H83.3Q83.3 14 83.6 14.4 83.9 14.7 84.3 14.8T85.2 15 86.2 14.8 86.9 14.3 87.2 13.6 86.9 12.9L86.3 12.5 85.5 12.3 84.5 12Q83.4 11.7 82.8 11.1 82.2 10.6 82.2 9.7T82.6 8.3 83.7 7.5 85.3 7.2 86.9 7.5 88 8.3 88.4 9.6H87.1Q87 9 86.5 8.6 86 8.3 85.3 8.3T84.4 8.5Q84 8.6 83.8 8.9 83.5 9.2 83.5 9.6T83.8 10.3L84.4 10.7 85.1 10.9 86 11.1 86.8 11.4 87.6 11.9Q88 12.2 88.2 12.6 88.5 13 88.5 13.6T88.1 14.9Q87.7 15.5 87 15.8T85.2 16.1M94.6 16H93.3V7.3H96.4Q97.4 7.3 98.1 7.6 98.7 8 99.1 8.7 99.4 9.3 99.4 10.1T99.1 11.6 98.1 12.6 96.4 12.9H94.2V11.8H96.3Q96.9 11.8 97.3 11.6T97.9 11 98.1 10.1 97.9 9.2 97.3 8.6 96.2 8.4H94.6zM102.2 16H100.9V9.4H102.1V10.5H102.2Q102.4 10 102.8 9.7 103.3 9.4 103.8 9.4H104.4V10.6H103.7L102.9 10.7Q102.6 10.9 102.4 11.3T102.2 12zM108.3 16.1Q107.3 16.1 106.6 15.7T105.6 14.5Q105.2 13.8 105.2 12.8 105.2 11.7 105.6 11 106 10.2 106.6 9.8T108.3 9.4Q109.2 9.4 109.9 9.8T110.9 11Q111.3 11.7 111.3 12.8 111.3 13.8 110.9 14.5 110.6 15.3 109.9 15.7T108.3 16.1M108.3 15Q108.9 15 109.2 14.7T109.8 13.9 110 12.8 109.8 11.6 109.2 10.8Q108.9 10.5 108.3 10.5T107.3 10.8 106.7 11.6 106.5 12.8Q106.5 13.4 106.7 13.9T107.3 14.7 108.3 15M115.5 18.6Q114.7 18.6 114.2 18.4T113.3 17.9 112.7 17.2L113.8 16.7 114.1 17.1 114.6 17.4Q115 17.6 115.5 17.6 116.2 17.6 116.7 17.2T117.2 16.1V14.8H117.1L116.7 15.3 116.2 15.7Q115.8 15.9 115.2 15.9 114.4 15.9 113.8 15.5 113.2 15.2 112.8 14.5 112.4 13.7 112.4 12.7T112.8 10.9 113.8 9.8 115.2 9.4Q115.8 9.4 116.2 9.6L116.8 10 117.1 10.5H117.2V9.4H118.5V16.1Q118.5 17 118.1 17.5 117.7 18.1 117 18.3T115.5 18.6M115.5 14.8Q116 14.8 116.4 14.6T117 13.8Q117.2 13.4 117.2 12.7T117 11.5 116.4 10.7Q116 10.5 115.5 10.5T114.5 10.8L114 11.6Q113.8 12.1 113.8 12.7T114 13.8L114.5 14.6Q114.9 14.8 115.5 14.8M121.5 16H120.2V9.4H121.4V10.5H121.5Q121.7 10 122.1 9.7 122.6 9.4 123.2 9.4H123.7V10.6H123L122.2 10.7Q121.9 10.9 121.7 11.3T121.5 12zM126.7 16.1Q126 16.1 125.5 15.9T124.7 15.2 124.4 14.1 124.7 13.2L125.2 12.7 126.1 12.3 127 12.2 127.9 12.1 128.4 11.9Q128.6 11.8 128.6 11.6L128.5 10.9 128.1 10.6Q127.8 10.4 127.4 10.4L126.6 10.5 126.1 10.9 125.8 11.3 124.6 11Q124.9 10.4 125.3 10.1T126.2 9.5L127.3 9.4 128.2 9.5 129 9.8Q129.4 10 129.7 10.5T129.9 11.7V16H128.7V15.1H128.6Q128.5 15.4 128.2 15.6L127.6 16zM126.9 15.1Q127.5 15.1 127.9 14.9L128.4 14.4 128.6 13.6V12.8L128.4 12.9 127.9 13 127.4 13.1H127L126.4 13.3 125.9 13.6Q125.7 13.8 125.7 14.2T125.9 14.7Q126 14.9 126.3 15zM132.9 16H131.6V9.4H132.9V11H132.8Q132.9 10.4 133.2 10.1T133.9 9.5L134.7 9.3Q135.5 9.3 135.9 9.8T136.5 11H136.3L136.8 10.1Q137.1 9.7 137.5 9.5L138.5 9.3Q139.1 9.3 139.5 9.6T140.3 10.3 140.6 11.6V16H139.3V11.7Q139.3 11.1 138.9 10.8T138 10.5L137.3 10.6 136.9 11.1Q136.7 11.4 136.7 11.8V16H135.5V11.6Q135.5 11.1 135.1 10.8 134.8 10.5 134.3 10.5L133.6 10.6 133.1 11.1 132.9 11.9zM146.9 16H145.6V7.3H147.6L149.5 12.3 149.7 12.8 149.9 13.6 150.1 14.4 150.3 15.1H150L150.2 14.4 150.4 13.6 150.6 12.9 150.8 12.3 152.6 7.3H154.6V16H153.3V8.2H153.4L153.2 9.1 152.9 10 152.7 10.7 152.5 11.3 150.7 16H149.5L147.7 11.3 147.5 10.7 147.3 10 147 9.1 146.7 8.2H146.8L146.9 9zM159.3 16.1Q158.3 16.1 157.6 15.7T156.5 14.5 156.1 12.8 156.5 11 157.6 9.8 159.2 9.4L160.2 9.6Q160.8 9.7 161.2 10.1T161.8 11.1 162.1 12.7V13.1H156.9V12.2H161.4L160.8 12.5Q160.8 11.9 160.6 11.4T160.1 10.7Q159.7 10.4 159.2 10.4T158.2 10.7 157.6 11.4 157.4 12.3V13Q157.4 13.7 157.7 14.1T158.3 14.8 159.3 15.1L159.9 15 160.5 14.7 160.8 14.1 162 14.4 161.5 15.3Q161.1 15.7 160.5 15.9T159.3 16.1M164.8 16H163.5V9.4H164.7L164.8 11H164.7Q164.8 10.4 165.1 10.1T165.8 9.5L166.6 9.3Q167.3 9.3 167.8 9.8T168.3 11H168.2Q168.3 10.5 168.6 10.1T169.4 9.5 170.3 9.3Q170.9 9.3 171.4 9.6T172.1 10.3Q172.4 10.8 172.4 11.6V16H171.1V11.7Q171.1 11.1 170.8 10.8 170.4 10.5 169.9 10.5L169.2 10.6Q168.9 10.8 168.8 11.1T168.6 11.8V16H167.3V11.6Q167.3 11.1 167 10.8T166.1 10.5L165.5 10.6 165 11.1 164.8 11.9zM177.4 16.1Q176.8 16.1 176.4 15.9L175.8 15.5 175.5 15H175.4V16H174.2V7.3H175.4V10.5H175.5L175.8 10 176.4 9.6Q176.8 9.4 177.4 9.4 178.2 9.4 178.8 9.8T179.8 10.9Q180.1 11.7 180.1 12.7 180.1 13.8 179.8 14.6 179.4 15.3 178.8 15.7T177.4 16.1M177.1 15Q177.7 15 178.1 14.7L178.6 13.9Q178.8 13.4 178.8 12.7T178.6 11.6L178.1 10.8Q177.7 10.5 177.1 10.5T176.2 10.7Q175.8 11 175.6 11.5T175.4 12.7 175.6 13.9 176.2 14.7 177.1 15M184.4 16.1Q183.4 16.1 182.7 15.7T181.6 14.5 181.3 12.8 181.6 11Q182 10.2 182.7 9.8T184.3 9.4Q184.9 9.4 185.4 9.6 185.9 9.7 186.3 10.1L187 11.1Q187.2 11.8 187.2 12.7V13.1H182V12.2H186.6L185.9 12.5 185.8 11.4Q185.6 10.9 185.2 10.7 184.8 10.4 184.3 10.4T183.4 10.7 182.8 11.4 182.6 12.3V13Q182.6 13.7 182.8 14.1T183.4 14.8Q183.9 15.1 184.4 15.1L185.1 15 185.6 14.7 185.9 14.1 187.1 14.4Q187 14.9 186.6 15.3T185.7 15.9 184.4 16.1M189.9 16H188.6V9.4H189.9V10.5Q190.1 10 190.6 9.7T191.6 9.4H192.1V10.6H191.5L190.7 10.7Q190.3 10.9 190.1 11.3T189.9 12z"/></g></svg>