<svg xmlns="http://www.w3.org/2000/svg" width="117" height="32" viewBox="0 0 117 32"><path fill="#fafafa" d="M6 0H111A6 6 0 0 1 117 6V26A6 6 0 0 1 111 32H6A6 6 0 0 1 0 26V6A6 6 0 0 1 6 0"/><g><path fill="#18181b" fill-opacity=".85" d="M15.5 12A3.5 3.5 0 1 1 8.5 12 3.5 3.5 0 0 1 15.5 12M12 3.5A12 12 0 0 1 20 6.7C22 8.4 23.3 10.4 23.8 11.2A2 2 0 0 1 23.7 12.8C23.2 13.6 22 15.6 20 17.3A12 12 0 0 1 12 20.5 12 12 0 0 1 4 17.3C2 15.6.7 13.7.2 12.8A2 2 0 0 1 .3 11.2C.8 10.4 2 8.4 4 6.7A12 12 0 0 1 12 3.5M1.6 11.9C2.1 12.9 3.2 14.7 5 16.2S9 19 12 19 17.3 17.7 19 16.1 22 12.8 22.5 12.1V12C21.9 11.1 20.8 9.3 19 7.8A11 11 0 0 0 12 5 10 10 0 0 0 5 7.9 17 17 0 0 0 1.5 11.9" transform="translate(12 8)scale(.66667)"/></g><g><path fill="#18181b" fill-opacity=".7" d="M38.8 21H37.2L34.3 13.4H35.9L37.5 17.7 37.9 19.1 38.3 20.6H37.8L38.2 19.1 38.6 17.7 40.1 13.4H41.7zM44.6 21H43.1V13.4H44.6zM43.8 12.2Q43.4 12.2 43.1 11.9T42.9 11.3 43.1 10.7Q43.4 10.4 43.8 10.4T44.5 10.7 44.8 11.3 44.5 11.9 43.8 12.2M49.9 21.2Q48.8 21.2 47.9 20.7T46.7 19.3Q46.2 18.4 46.2 17.2 46.2 16.1 46.7 15.2T47.9 13.8Q48.7 13.3 49.8 13.3L51 13.5Q51.6 13.7 52.1 14.2T52.9 15.3Q53.2 16.1 53.2 17.1V17.6H47.1V16.5H52.4L51.7 16.9Q51.7 16.2 51.5 15.6 51.2 15.1 50.8 14.8T49.8 14.5Q49.1 14.5 48.7 14.8T48 15.6 47.7 16.7V17.5Q47.7 18.3 48 18.8T48.8 19.6 49.9 19.9L50.7 19.8 51.3 19.4 51.6 18.8 53 19.2Q52.9 19.8 52.4 20.2T51.3 20.9 49.9 21.2M58 21H56.5L54.2 13.4H55.8L56.6 16.5 57 18.1 57.4 20.1H57.2L57.6 18.1 58 16.5 58.9 13.4H60.4L61.2 16.5 61.6 18.1 62 20.1H61.8L62.2 18.1 62.6 16.5 63.4 13.4H65L62.7 21H61.2L60.3 17.7 60 16.7 59.7 15.6 59.4 14.4H59.8L59.5 15.6 59.2 16.7 58.9 17.7zM69.2 21.2Q68.3 21.2 67.7 20.9T66.6 20.2Q66.2 19.7 66.1 19.1L67.5 18.8Q67.6 19.4 68.1 19.7 68.5 19.9 69.2 19.9T70.3 19.6Q70.8 19.3 70.8 18.9T70.5 18.3L69.7 17.9 68.4 17.7Q67.3 17.4 66.8 16.9T66.3 15.5Q66.3 14.9 66.7 14.3T67.7 13.5Q68.4 13.3 69.3 13.3 70.1 13.3 70.7 13.5T71.6 14.2Q72 14.6 72.1 15.2L70.8 15.5Q70.7 15.1 70.3 14.8T69.3 14.5Q68.6 14.5 68.2 14.7T67.8 15.4Q67.8 15.8 68.1 16.1L69 16.4 70.2 16.7Q71.3 17 71.8 17.5T72.3 18.8Q72.3 19.5 71.9 20T70.8 20.9 69.2 21.2"/></g><g><path fill="#18181b" d="M86.7 21H80V19.9L83.4 16.3 84.3 15.3 84.9 14.5Q85.1 14.1 85.1 13.6T84.8 12.7 84.2 12.2 83.3 12 82.3 12.2 81.7 12.8 81.5 13.8H80Q80 12.9 80.4 12.2T81.6 11.1 83.3 10.7 85 11.1Q85.7 11.4 86.1 12.1T86.6 13.6Q86.6 14.1 86.3 14.7L85.6 15.9 84.1 17.5 82.1 19.6V19.7H86.7zM95.3 21H88.6V19.9L92.1 16.3 93 15.3 93.5 14.5Q93.7 14.1 93.7 13.6T93.4 12.7 92.8 12.2 91.9 12 90.9 12.2 90.3 12.8 90.1 13.8H88.6Q88.6 12.9 89 12.2T90.2 11.1 91.9 10.7 93.6 11.1Q94.3 11.4 94.8 12.1T95.2 13.6L95 14.7Q94.8 15.2 94.2 15.9L92.8 17.5 90.8 19.6V19.7H95.3zM104 21H97.2V19.9L100.7 16.3 101.6 15.3 102.1 14.5Q102.3 14.1 102.3 13.6T102.1 12.7L101.4 12.2Q101 12 100.5 12T99.6 12.2 98.9 12.8 98.7 13.8H97.2Q97.2 12.9 97.7 12.2T98.8 11.1Q99.6 10.7 100.5 10.7 101.5 10.7 102.2 11.1 103 11.4 103.4 12.1T103.8 13.6L103.6 14.7 102.9 15.9 101.4 17.5 99.4 19.6V19.7H104z"/></g></svg>